<svg xmlns="http://www.w3.org/2000/svg" width="24" height="24"><g fill="none" fill-rule="nonzero"><path fill="#0043C8" d="M22.223 18.233a.545.545 0 0 1-.094.028L5.655 21.384a.504.504 0 0 1-.507-.207L.09 13.906a.504.504 0 0 1 .11-.69l2.747-2.07a.508.508 0 0 1 .461-.077l1.103.366-.12-.177a.502.502 0 0 1 .158-.714l2.015-1.216a.505.505 0 0 1 .495-.015l1.007.53-.466-.765a.504.504 0 0 1 .173-.695L9.877 7.13a.502.502 0 0 1 .435-.039l1.022.386.07-.612a.505.505 0 0 1 .238-.373L14.2 4.93l.022-.013.629-.342a.474.474 0 0 1 .134-.05l3.889-2.447a.504.504 0 0 1 .691.152l1.066 1.64a.505.505 0 0 1-.151.699l-1.94 1.239.084.135 1.167-.708a.505.505 0 0 1 .684.157l.829 1.274a.504.504 0 0 1-.161.705l-1.1.667.046.073 2.155-1.332a.504.504 0 0 1 .7.175l.988 1.699c.058.101.08.219.061.334l-1.458 8.859a.504.504 0 0 1-.31.386l-.002.001Zm-4.834-8.16-1.874-3.538-.143 2.664 2.017.875Z"/><path fill="#0043C8" d="M5.344 9.873a1.589 1.589 0 1 0-1.18-2.95 1.589 1.589 0 0 0 1.18 2.95Z"/><path fill="#F1F505" d="m15.247 4.956 4.118 6.524 4.128-2.573-.987-1.699-2.579 1.595-.587-.928 1.539-.935-.829-1.275-1.593.968-.609-.982 2.359-1.507-1.065-1.639zM5.157 9.405a1.085 1.085 0 1 0-.807-2.014 1.085 1.085 0 0 0 .807 2.014Z"/><path fill="#0043C8" d="m9.997 14.363 12.038 3.403-10.436-1.031z"/><path fill="#0043C8" d="m3.251 11.548 18.784 6.218-15.243-1.201z"/><path fill="#F1F505" d="m4.809 10.975 2.383 3.529 1.915-1.215-2.282-3.53z"/><path fill="#03AA65" d="m5.562 20.889 16.473-3.123-10.436-1.032zM7.193 14.504l14.842 3.262-12.928-4.477z"/><path fill="#F1F505" d="m.504 13.618 5.057 7.271 6.038-4.154-1.602-2.372-3.205 2.202-3.541-5.017z"/><path fill="#0043C8" d="m9.997 14.363 12.038 3.403-10.436-1.031zM6.825 9.759l15.21 8.007-12.928-4.477z"/><path fill="#03AA65" d="m12.357 15.921 9.678 1.845-7.609-3.185z"/><path fill="#0043C8" d="m14.426 14.581-1.594-2.324 3.215 1.522 5.988 3.987z"/><path fill="#03AA65" d="m19.365 11.48 2.67 6.285 1.459-8.858z"/><path fill="#0043C8" d="m15.247 4.956 6.788 12.81-2.67-6.286zM10.135 7.565l1.41 2.5.254-1.873z"/><path fill="#F1F505" d="m8.031 8.816 4.327 7.105 2.068-1.34-1.594-2.324 3.215 1.522 2.966-1.903-4.95-1.9.399-4.616-2.557 1.564-.36 3.141-1.41-2.5z"/><path fill="#03AA65" d="m19.013 11.876 3.022 5.889-5.988-3.986z"/><path fill="#0043C8" d="m14.063 9.976.787-.454.242-4.504-.63.342z"/><path fill="#0043C8" d="m14.063 9.976.787-.454 4.515 1.958-.352.396z"/></g></svg>