<svg xmlns="http://www.w3.org/2000/svg" width="24" height="24"><g fill="none" fill-rule="nonzero"><path fill="#000" d="m21.023 18.937.528-1.689.002.001-.506-.97-.082-.024s-.007-.005-.011-.005l-1.69-.527.09-.29 2.134.665.529-1.69-.506-.97-.087-.027-.007-.002-1.302-.405.09-.29 2.523.785-.002-.001v-.001l.53-1.692-.507-.969-.091-.028h-.001l-4.019-1.252a.1.1 0 0 0-.125.066l-.471 1.503c-.006-.02-.01-.04-.018-.06a38.324 38.324 0 0 0-.605-1.2l-.008-.019c-.003-.007-.009-.013-.012-.02a1.068 1.068 0 0 0-.09-.15c-.298-.446-.798-.782-1.49-.997l-2.301-.717a.102.102 0 0 0-.077.007.102.102 0 0 0-.049.059L12.85 9.76a2.138 2.138 0 0 0-.074-.307c-.016-.052-.181-.381-.336-.686a2.017 2.017 0 0 0-.597-1.13 2.502 2.502 0 0 0-.393-.305 3.544 3.544 0 0 0-.862-.385c-.807-.252-1.498-.23-2.054.062a2.014 2.014 0 0 0-.4.279l.053-.173-.54-.939a.093.093 0 0 0-.016-.026L7.63 6.15a.103.103 0 0 0-.044-.032L6.088 5.65a.105.105 0 0 0-.077.007.102.102 0 0 0-.048.059L5.25 7.99l-.264-1.87-.504-.932-.007-.015-.005-.01a.102.102 0 0 0-.05-.034l-1.435-.447a.105.105 0 0 0-.077.007.102.102 0 0 0-.049.058L.687 11.691a.1.1 0 0 0 .011.08l-.004-.002.471.995 1.688.525-.003-.006.741-2.368.255 1.805c.003.021.013.039.027.054l.487.974.002.006 1.591.495.002-.001.516-1.65a1.974 1.974 0 0 0 .552.967l.037.072.176.34c.027.055.067.12.108.178a3.574 3.574 0 0 0 .114.154l.013.014a2.032 2.032 0 0 0 .242.242l.018.015a2.37 2.37 0 0 0 .312.22c.23.14.496.255.793.347l.007.002c.747.233 1.419.233 1.968-.057.177-.09.338-.21.484-.36l-.075.24a.098.098 0 0 0 .001.063l.474 1.002 1.687.526-.001-.001.73-2.335.002.002v-.001l.707.221c.752.235 1.424.236 1.978-.056l-.002-.001c.1-.053.192-.113.28-.182l-.737 2.355-.001.012h-.002l-.027.085v.001l.504.965v.002l.002.001 4.208 1.312-.003-.004.003-.002Z"/><path fill="#D42E3E" d="m15.086 11.12-.213.679c.232.066.413.066.553-.003.002-.001.004-.004.007-.004.141-.073.248-.226.327-.463l-.674-.21ZM10.407 9.67c-.211-.045-.359-.024-.466.03-.126.067-.244.21-.335.493l-.691 2.205c.213.06.374.06.486.002.123-.066.218-.209.288-.435l.719-2.294-.001-.001Z"/><path fill="#D42E3E" d="m21.732 19.192.003.002.53-1.69a.702.702 0 0 0-.047-.534l-.18-.345a.698.698 0 0 0 .161-.274l.529-1.69a.702.702 0 0 0 0-.42.701.701 0 0 0 .71-.49l.53-1.692a.702.702 0 0 0-.047-.534l-.506-.97a.695.695 0 0 0-.412-.341l-.262-.082-3.947-1.23a.7.7 0 0 0-.863.423c-.425-.635-1.1-1.033-1.86-1.27l-2.396-.745a.702.702 0 0 0-.878.462l-.026.078c-.413-.728-1.135-1.175-1.96-1.431-.74-.23-1.5-.289-2.195-.035l-.27-.517a.714.714 0 0 0-.068-.105c-.002-.001-.002-.004-.004-.006a.662.662 0 0 0-.08-.084.764.764 0 0 0-.098-.074l-.014-.008a.728.728 0 0 0-.116-.054l-.03-.012-1.689-.526a.702.702 0 0 0-.842.37l-.259-.497c-.007-.015-.017-.03-.024-.043l-.007-.01a.841.841 0 0 0-.052-.071l-.011-.013a.865.865 0 0 0-.055-.057l-.01-.008a.588.588 0 0 0-.069-.053l-.015-.01a.586.586 0 0 0-.079-.044c-.025-.013-.053-.022-.08-.032l-.174-.054-1.427-.444a.702.702 0 0 0-.878.462L.032 11.627a.7.7 0 0 0 .048.535l.507.97c.01.021.022.04.035.06l.005.008.036.048a.01.01 0 0 1 .004.004l.043.048c.078.079.175.14.289.176l1.687.525a.698.698 0 0 0 .841-.37l.26.496a.658.658 0 0 0 .021.039l.01.016a.731.731 0 0 0 .113.134c.006.004.012.012.018.017a.713.713 0 0 0 .067.051l.014.01c.02.012.04.024.062.035l.024.01c.025.013.05.023.077.031l.004.003 1.592.496a.702.702 0 0 0 .878-.462l.027-.087a2.658 2.658 0 0 0 .231.34l.02.026.009.01.007.008c.099.12.209.23.326.331.385.332.86.567 1.38.727.74.23 1.494.288 2.183.039l.263.505.002.001a.7.7 0 0 0 .412.344l1.688.525a.7.7 0 0 0 .877-.464c.004-.016.01-.026.01-.037l.51-1.624.04.013c.461.144.93.219 1.385.196l-.356 1.137a.702.702 0 0 0 .047.534l.507.97a.698.698 0 0 0 .41.343l4.21 1.31a.702.702 0 0 0 .877-.462Zm-5.421-2.53.026-.087c.002.001.002-.007.003-.01l.737-2.356a1.909 1.909 0 0 1-.28.181l.002.001c-.554.293-1.227.292-1.978.057l-.709-.22-.73 2.333-1.686-.525-.475-1.002a.103.103 0 0 1 0-.063l.074-.24c-.145.15-.306.272-.483.36-.55.29-1.222.29-1.969.057l-.007-.002a3.566 3.566 0 0 1-.793-.346 2.544 2.544 0 0 1-.311-.22l-.019-.016a2.137 2.137 0 0 1-.241-.242l-.013-.014-.015-.019a2.918 2.918 0 0 1-.1-.135 1.48 1.48 0 0 1-.107-.177l-.176-.341-.038-.072a1.984 1.984 0 0 1-.552-.966l-.516 1.649-1.593-.494-.489-.98a.098.098 0 0 1-.026-.054l-.255-1.805-.742 2.368.003.006-1.687-.525-.472-.994a.114.114 0 0 1-.006-.079L2.86 4.748a.102.102 0 0 1 .049-.058.102.102 0 0 1 .077-.007l1.436.447c.02.006.036.02.049.035l.005.009a.039.039 0 0 1 .007.015l.504.932.264 1.87.712-2.274a.102.102 0 0 1 .048-.059.102.102 0 0 1 .077-.007l1.497.467a.093.093 0 0 1 .044.032c.009.009.015.018.018.027l.54.94-.053.172c.124-.11.257-.204.4-.279.556-.292 1.247-.314 2.054-.062.335.104.617.23.862.385.145.092.277.194.393.305a2.033 2.033 0 0 1 .597 1.13c.155.305.32.634.336.686.034.098.056.201.074.307l.542-1.733a.102.102 0 0 1 .049-.059.103.103 0 0 1 .077-.007l2.301.717c.693.216 1.192.551 1.489.997.026.035.053.08.083.137l.008.014.012.02c.004.006.005.013.008.019.122.234.578 1.12.605 1.198l.018.06.47-1.502a.1.1 0 0 1 .126-.066l4.019 1.251.092.03.507.968-.53 1.692-2.52-.783-.09.29 1.3.405.006.004.088.027.506.968-.528 1.691-2.134-.665-.09.29 1.69.527.008.006.084.024.506.97-.53 1.687-4.206-1.306-.505-.97Z"/><path fill="#E93CEF" d="m3.447 9.016-.192-.015a.087.087 0 0 0-.028.002.101.101 0 0 0-.082.085l-.932 2.974-1.305-.407L2.662 6.05a.2.2 0 0 1-.001-.114l.276-.885a.199.199 0 0 1 .067-.097l.016-.05.05.016a.196.196 0 0 1 .118 0l.497.155c.04.012.073.037.097.068l.518.162.497 3.529a.1.1 0 0 0 .09.086l.195.015a.1.1 0 0 0 .104-.07l.578-1.848a.2.2 0 0 1-.001-.114l.277-.885a.195.195 0 0 1 .066-.096l.015-.05.049.016a.19.19 0 0 1 .12 0l.496.154c.04.013.074.038.098.07l.542.168-2.112 6.752-1.28-.4-.5-3.528a.094.094 0 0 0-.087-.088Z"/><path fill="#D42E3E" d="m3.07 4.919-.05-.016-.015.05a.19.19 0 0 1 .064-.035l.001.001ZM6.172 5.886l-.048-.015-.015.048a.19.19 0 0 1 .063-.033Z"/><path fill="#FFF" d="M2.793 6.186a.2.2 0 0 0 .25-.132l.217-.693.306.095a.199.199 0 0 0 .25-.132.201.201 0 0 0-.13-.251l-.497-.155a.203.203 0 0 0-.184.034.198.198 0 0 0-.067.098l-.276.884a.2.2 0 0 0 0 .115.199.199 0 0 0 .13.135l.001.002ZM5.896 7.152a.2.2 0 0 0 .25-.132l.217-.693.305.094a.2.2 0 0 0 .25-.132.2.2 0 0 0-.131-.25l-.496-.155a.204.204 0 0 0-.153.014c-.012.005-.022.013-.031.02a.195.195 0 0 0-.067.097l-.276.884a.2.2 0 0 0 0 .115.199.199 0 0 0 .13.135l.002.003Z"/><path fill="#E93CEF" d="m12.106 10.159.019-.06c.117-.393.184-.81.13-1.22a1.853 1.853 0 0 0-.55-1.096 2.268 2.268 0 0 0-.362-.28 3.44 3.44 0 0 0-.815-.365 4.08 4.08 0 0 0-.257-.07.2.2 0 0 1-.16.359c-.525-.127-.966-.098-1.306.083-.396.208-.697.634-.894 1.266a.2.2 0 0 1-.298.11.2.2 0 0 1-.083-.228l-.025.069-.73 2.333c-.23.738-.227 1.382.045 1.902.157.3.398.55.716.752.234.147.508.27.82.365.739.23 1.38.225 1.899-.048.521-.275.891-.802 1.122-1.54l.73-2.332Zm-2.61 2.417c-.16.083-.373.094-.67.005a1.328 1.328 0 0 1-.313-.14.639.639 0 0 1-.237-.245c-.083-.16-.093-.374-.003-.671l.73-2.334.001-.002c.095-.296.226-.466.386-.55.16-.085.374-.093.67-.003.126.04.228.086.31.139a.65.65 0 0 1 .238.244c.083.16.093.373.001.672l-.73 2.333c-.092.298-.225.466-.384.552Z"/><path fill="#D42E3E" d="M7.948 12.144a.2.2 0 0 1 .271.083c.098.185.289.322.585.417.297.09.534.089.72-.008.186-.098.323-.29.416-.588a.2.2 0 1 1 .382.12c-.127.403-.328.672-.612.822-.286.15-.621.16-1.026.036a1.828 1.828 0 0 1-.42-.191 1.103 1.103 0 0 1-.399-.421.201.201 0 0 1 .084-.271Z"/><path fill="#FFF" d="M8.707 13.128c.405.125.74.113 1.026-.035.285-.15.485-.419.612-.822a.2.2 0 1 0-.382-.12c-.094.297-.23.49-.416.588-.186.096-.423.098-.72.008-.296-.096-.487-.233-.585-.417a.201.201 0 0 0-.354.188c.089.169.22.308.398.42.119.076.258.14.42.191h.001ZM7.612 8.886a.2.2 0 0 0 .298-.11c.198-.631.499-1.058.894-1.265.34-.181.781-.209 1.307-.084a.2.2 0 0 0 .094-.389c-.623-.15-1.158-.109-1.587.119-.493.26-.86.765-1.09 1.503a.2.2 0 0 0 .084.227Z"/><path fill="#D42E3E" d="m13.6 8.197-.047-.014-.015.045a.148.148 0 0 1 .061-.031Z"/><path fill="#E93CEF" d="m12.745 15.341.7-2.236a.105.105 0 0 1 .049-.06.103.103 0 0 1 .076-.007l.804.25c.727.227 1.341.213 1.821-.041.484-.254.845-.752 1.071-1.481a.081.081 0 0 1 .01-.02c.22-.722.207-1.33-.043-1.807-.252-.484-.748-.844-1.475-1.07l-.29-.09a.2.2 0 0 1-.216.315l-1.463-.456-.298.955a.2.2 0 0 1-.297.11.2.2 0 0 1-.082-.107l-1.67 5.338 1.305.406-.002.001Zm1.794-5.41.096.029.007.002.702.219c.307.095.506.237.608.432.101.194.104.438.009.746-.092.291-.224.485-.404.591a.199.199 0 0 1 .05.383c-.264.107-.596.1-.988-.022l-.428-.134a.2.2 0 0 1-.001-.382l-.212-.065a.104.104 0 0 1-.059-.049.1.1 0 0 1-.007-.076l.03-.095.473-1.514a.1.1 0 0 1 .125-.067v.001Z"/><path fill="#FFF" d="M13.24 9.726a.2.2 0 0 0 .25-.132l.298-.955 1.463.456a.199.199 0 0 0 .25-.132.197.197 0 0 0-.034-.184.196.196 0 0 0-.097-.067l-1.653-.515a.196.196 0 0 0-.118 0 .29.29 0 0 0-.035.014.181.181 0 0 0-.027.018.197.197 0 0 0-.07.1l-.36 1.146a.198.198 0 0 0 .003.122.197.197 0 0 0 .128.13h.002ZM15.457 11.963c-.176.072-.417.06-.72-.034l-.427-.133a.201.201 0 0 0-.167.361c.015.01.03.017.047.022l.427.134c.392.122.725.13.988.022a.2.2 0 0 0-.05-.383.206.206 0 0 0-.099.012Z"/><path fill="#000" d="M18.267 11.074a.194.194 0 0 1-.002-.12l.323-1.03a.2.2 0 0 1 .07-.1l.015-.048.048.015a.198.198 0 0 1 .118 0l1.688.525c.04.012.073.036.097.067l1.806.562.07.023-.409 1.308-2.33-.727-.096-.03a.1.1 0 0 0-.076.008.104.104 0 0 0-.05.06l-.352 1.127-.029.095a.1.1 0 0 0 .066.125l.075.023c.006.004.011.006.018.007l.18.056a.198.198 0 0 1 .162-.02l1.515.472a.2.2 0 0 1-.003.383l-.32 1.022-1.944-.606-.095-.03a.102.102 0 0 0-.125.066l-.381 1.222a.1.1 0 0 0 .066.125l.263.082a.199.199 0 0 1 .138-.008l1.903.593a.194.194 0 0 1 .109.084l.012.004-.003.012a.201.201 0 0 1-.083.268l-.323 1.03-3.826-1.19 1.707-5.455h-.002Z"/><path fill="#D42E3E" d="m18.673 9.776-.015.048a.228.228 0 0 1 .063-.033l-.048-.015Z"/><path fill="#E93CEF" d="m20.387 17.72.322-1.03a.198.198 0 0 1-.154.014l-1.903-.592a.2.2 0 0 1-.019-.375l-.263-.083a.1.1 0 0 1-.066-.124l.382-1.222a.102.102 0 0 1 .124-.066l.096.03 1.943.605.32-1.022a.196.196 0 0 1-.117 0l-1.515-.472a.2.2 0 0 1-.041-.363l-.181-.056-.018-.007-.076-.024a.1.1 0 0 1-.065-.124l.029-.096.352-1.126a.105.105 0 0 1 .05-.06.104.104 0 0 1 .076-.008l.095.03 2.33.727.41-1.308-.07-.023-1.806-.562a.2.2 0 0 1-.217.315l-1.497-.465-.262.838a.2.2 0 0 1-.297.11.204.204 0 0 1-.083-.109l-1.707 5.455 3.826 1.19.002.002Z"/><path fill="#D42E3E" d="m20.797 16.41-.013-.004.01.015.003-.012v.001Z"/><path fill="#FFF" d="M18.52 15.861a.2.2 0 0 0 .132.252l1.902.592c.054.017.11.01.155-.015a.201.201 0 0 0 .083-.268l-.01-.015a.195.195 0 0 0-.108-.084l-1.903-.593a.199.199 0 0 0-.139.009.198.198 0 0 0-.112.123ZM19.407 13.133a.2.2 0 0 0 .13.25l1.516.473a.2.2 0 0 0 .12-.383L19.658 13a.199.199 0 0 0-.161.02.2.2 0 0 0-.09.112ZM18.396 11.204a.199.199 0 0 0 .25-.132l.263-.839 1.497.466a.2.2 0 0 0 .25-.132.197.197 0 0 0-.033-.184.196.196 0 0 0-.098-.067l-1.688-.525a.198.198 0 0 0-.18.034.2.2 0 0 0-.07.099l-.323 1.03a.193.193 0 0 0 .001.12.198.198 0 0 0 .13.131l.001-.001Z"/></g></svg>