<svg xmlns="http://www.w3.org/2000/svg" width="24" height="24"><defs><linearGradient id="a" x1=".002%" x2="100%" y1="49.983%" y2="49.983%"><stop offset="0%" stop-color="#FFFD54"/><stop offset="50%" stop-color="#6FF1FB"/><stop offset="59%" stop-color="#77F1D0"/><stop offset="100%" stop-color="#FFFD54"/></linearGradient></defs><g fill="none" fill-rule="nonzero"><path fill="#0057FF" d="m11.4 19.062.738-.163 11.158-2.602a.873.873 0 0 0 .697-.855v-2.085a.873.873 0 0 0-.321-.678l-.015-.012v-1.405a.872.872 0 0 0 .336-.688l.007-.006V8.482a.873.873 0 0 0-.515-.795 66.825 66.825 0 0 0-.293-.136c-.023-.01-.045-.021-.07-.03l-.806-.372c-.014-.007-.028-.015-.043-.021l-1.4-.649a.883.883 0 0 0-.549-.066l-.045.01-.087-.157c.237-.428.364-.9.364-1.372 0-.9-.48-1.683-1.253-2.044-.199-.091-.394-.195-.597-.277-.481-.195-.943-.483-1.464-.563-.183-.03-.335.012-.511.055l-.813.199-1.182.29-1.4.342-1.465.359c-.458.112-.917.223-1.375.336-.377.093-.755.185-1.132.276l-.737.18-.203.05s-.002 0-.002.002c-.007 0-.014.003-.02.003l-.126.03-.344.085-.515.125-.637.157-.712.174-.74.181-.718.176-.65.16-.533.129c-.085 0-.192.045-.275.065a1.287 1.287 0 0 0-.268.095c-.387.19-.686.602-.86.986a2.72 2.72 0 0 0-.072.181l-.022.066a1.81 1.81 0 0 0-.035.12c-.007.024-.01.047-.018.073v.008a.895.895 0 0 0-.022.11c-.004.023-.007.045-.01.077a1.583 1.583 0 0 0-.016.192c-.002.037-.003.074-.002.108 0 .03.003.058.004.086.003.035.005.07.01.102.002.03.007.058.011.086a1.728 1.728 0 0 0 .14.466c.014.026.026.054.038.077.017.033.034.063.053.093l.004.007.04.065c.022.032.043.062.068.094l-.288.638a.867.867 0 0 0 .002.725c.088.189.24.34.426.427l.455.21c.016.008.032.016.05.023a.802.802 0 0 0 .048.022l.039.018-2.23.457a.872.872 0 0 0-.697.855v6.952a.87.87 0 0 0 .516.796l.847.392.045.02.286.132c.013.007.026.012.038.017a8.367 8.367 0 0 0 .237.107l.786.364c.02.01.042.023.063.032l.307.142a.881.881 0 0 0 .548.066l.026-.006 7.508-1.75.194-.056-.001.003Z"/><path fill="#023887" d="M9.873 5.62v-.005h-.006v-.002H9.86V5.61h-.007v-.003h-.006v-.002H9.84v-.003h-.007V5.6h-.006v-.002H9.82v-.003h-.006v-.003h-.007V5.59H9.8v-.003h-.006v-.002h-.007V5.58h-.006v-.003h-.007v-.002h-.007v-.003h-.006V5.57h-.007v-.002h-.007v-.003h-.006v-.003h-.007V5.56h-.006v-.003h-.004l-.003-.001-.004-.002h-.003l-.004-.002-.002-.002h-.004L9.7 5.547l-.004-.002h-.002l-.004-.002-.003-.001-.004-.002-.003-.001-.004-.001-.002-.002-.004-.001-.003-.001-.004-.002-.003-.001-.004-.001-.002-.002-.004-.001-.003-.001-.004-.002-.002-.001-.004-.001-.003-.002-.004-.001-.003-.001-.004-.002h-.002l-.004-.002-.003-.002h-.004L9.61 5.51l-.004-.002h-.003l-.004-.002-.003-.002h-.004l-.002-.002-.004-.001-.003-.002-.004-.001-.003-.001-.003-.002-.003-.001-.004-.001-.003-.002-.004-.001-.002-.001-.004-.002-.003-.001-.004-.001-.003-.002-.004-.001-.002-.001-.004-.002-.003-.001-.004-.001-.002-.002-.004-.001-.003-.001-.004-.002h-.003l-.004-.002-.002-.002h-.004l-.003-.002-.004-.002H9.49l-.004-.002-.002-.002h-.004l-.003-.002-.004-.001-.002-.002-.004-.001-.003-.001-.004-.002-.003-.001-.004-.001-.002-.002-.004-.001-.003-.001-.004-.002-.002-.001-.004-.001-.003-.002-.004-.001-.003-.001-.004-.002-.002-.001-.004-.001-.003-.002-.004-.001-.003-.001-.004-.002h-.002l-.004-.002-.003-.002h-.004l-.002-.002-.004-.002h-.003l-.004-.002-.003-.001-.004-.002-.002-.001-.004-.001-.003-.002-.004-.001-.002-.001-.004-.002-.003-.001-.004-.001-.003-.002-.004-.001-.002-.001-.004-.002-.003-.001-.004-.001-.003-.002-.004-.001-.002-.001-.004-.002-.003-.001-.004-.001-.002-.002h-.004l-.003-.002-.004-.002h-.003L9.28 5.38l-.002-.002h-.004l-.003-.002-.004-.002h-.002l-.004-.002-.003-.001-.004-.002-.003-.001-.004-.001-.002-.002-.004-.001-.003-.001-.004-.002-.003-.001-.004-.001-.002-.002-.004-.001-.003-.001-.004-.002-.002-.001-.004-.001-.003-.002h-.004v-.002h-.007v-.003h-.006v-.003H9.18V5.34h-.006v-.003h-.007v-.003H9.16v-.002h-.006v-.003h-.007v-.002h-.007v-.003h-.006V5.32h-.007v-.002h-.006v-.003h-.007v-.003h-.007V5.31h-.006v-.003h-.007v-.003H9.09v-.002h-.007v-.003h-.007v-.003H9.07v-.002h-.007V5.29h-.007v-.003H9.046v-.005H9.04v-.002h-.007v-.003h-.007v-.003H9.02v-.002h-.007V5.27h-.006v-.003H9v-.002h-.007v-.003h-.006v-.003H8.98v-.002h-.007v-.003h-.006v-.003H8.96V5.25h-.006v-.003h-.007v-.003H8.94v-.002h-.006v-.003h-.007v-.002h-.006v-.003h-.007V5.23h-.007v-.002h-.006v-.003h-.007v-.003h-.007V5.22h-.006v-.003h-.007v-.003h-.006v-.002H8.86v-.003h-.007v-.003h-.006v-.002H8.84V5.2h-.006V5.2h-.007v-.003H8.82v-.003h-.006v-.002h-.007v-.003h-.007v-.003h-.006v-.002h-.007V5.18h-.006v-.003h-.007v-.002h-.007v-.003h-.006v-.003h-.007v-.002H8.75v-.003h-.007v-.003h-.007V5.16H8.73v-.003h-.007v-.002h-.007V5.15H8.71v-.003h-.007v-.002h-.006v-.003h-.007V5.14h-.007v-.002h-.006v-.003h-.007v-.003h-.006V5.13h-.007v-.003h-.007v-.003h-.006v-.002h-.007v-.003l-1.234.254v.465h-.003l-.004-.002-.003-.001-.004-.001-.002-.002-.004-.001-.003-.001-.004-.002-.003-.001-.004-.001-.002-.002-.004-.001-.003-.001-.004-.002H7.35v-.004h-.007v-.002h-.007V5.81H7.33v-.003h-.007v-.002h-.006v-.003h-.007v-.002h-.007v-.003h-.006v-.003h-.007v-.002h-.007V5.79h-.006v-.003h-.007v-.002h-.006v-.003h-.007v-.003h-.007v-.002h-.006v-.003h-.007v-.003H7.23V5.77h-.007v-.003h-.007v-.003H7.21v-.002h-.007v-.003H7.194v-.005h-.007V5.75h-.006v-.002h-.007v-.003h-.007v-.003h-.006V5.74h-.007v-.003h-.006v-.003H7.14v-.002h-.007v-.003h-.006v-.003H7.12v-.002h-.007V5.72h-.006v-.003H7.1v-.002h-.006v-.003h-.007v-.002h-.007v-.003h-.006v-.003h-.007v-.002h-.006V5.7h-.007v-.003h-.007v-.002h-.006v-.003h-.007v-.003h-.007v-.002h-.006v-.003h-.007v-.003H7.01V5.68h-.007v-.003h-.007v-.002H6.99V5.67h-.007v-.003h-.006v-.002h-.007v-.003h-.007V5.66h-.006v-.002h-.007v-.003h-.007v-.003h-.006V5.65h-.007v-.003h-.006v-.003h-.007v-.002h-.007v-.003h-.006v-.003h-.007v-.002H6.89V5.63h-.007V5.63h-.007v-.003H6.87v-.003h-.007v-.002h-.007v-.003H6.85v-.003h-.007v-.002h-.006V5.61H6.83v-.003h-.007v-.002h-.006v-.003H6.81V5.6h-.006v-.002h-.007v-.003H6.79v-.003h-.006V5.59l-1.235.254v2.122c0 .548.278.974.703 1.171l.006.003.007.002c.003 0 .005.003.007.003l.006.003.007.002c.003 0 .005.003.006.003.003 0 .006.003.007.003l.007.002.006.003.007.003.007.002.006.003.007.002.006.003c.003 0 .006.003.007.003l.007.002.006.003c.003 0 .006.003.007.003l.006.002c.003 0 .006.003.007.003.003 0 .005.003.007.003l.006.002c.003 0 .006.003.007.003.003 0 .005.003.007.003l.006.002.007.003.006.003.007.002c.003 0 .005.003.007.003l.006.002c.003 0 .006.003.007.003.003 0 .005.003.006.003l.007.002c.003 0 .005.003.007.003l.006.003.007.002c.003 0 .005.003.007.003l.006.003.007.002.006.003c.003 0 .006.003.007.003l.007.002.006.003c.003 0 .006.003.007.003l.006.002c.003 0 .006.003.007.003l.007.002.006.003c.003 0 .006.003.007.003l.007.002.006.003c.003 0 .005.003.007.003l.006.002c.003 0 .006.003.007.003.003 0 .005.003.007.003l.006.002c.003 0 .006.003.007.003.003 0 .005.003.006.003l.007.002c.003 0 .005.003.007.003l.006.003.007.002c.003 0 .005.003.007.003l.006.002c.003 0 .005.003.007.003l.006.003.007.002c.003 0 .005.003.007.003l.006.003.007.002c.003 0 .005.003.006.003.003 0 .006.003.007.003l.007.002.006.003c.003 0 .006.003.007.003l.007.002.006.003.007.002.006.003c.003 0 .006.003.007.003l.007.002.006.003c.003 0 .006.003.007.003l.006.002c.003 0 .006.003.007.003.003 0 .005.003.007.003l.006.002c.003 0 .006.003.007.003.003 0 .005.003.007.003l.006.002c.003 0 .005.003.007.003l.006.003.007.002c.003 0 .005.003.007.003l.006.002c.003 0 .006.003.007.003.003 0 .005.003.006.003l.007.002c.003 0 .005.003.007.003l.006.003.033.014c.003 0 .006.003.007.003.003 0 .005.003.007.003l.006.002c.003 0 .006.003.007.003l.006.002c.003 0 .006.003.007.003.003 0 .005.003.007.003l.006.002c.003 0 .006.003.007.003.003 0 .005.003.007.003l.006.002c.003 0 .005.003.007.003l.006.003.007.002c.003 0 .005.003.007.003l.006.003.007.002c.003 0 .005.003.007.003l.006.003.007.002.006.003.007.002c.003 0 .005.003.007.003l.006.003.007.002.006.003c.003 0 .006.003.007.003l.007.002.006.003c.003 0 .006.003.007.003l.007.002.006.003c.003 0 .005.003.007.003l.006.002.007.003c.003 0 .005.003.007.003l.006.002c.003 0 .005.003.007.003l.006.002c.003 0 .006.003.007.003.003 0 .005.003.007.003l.006.002c.003 0 .006.003.007.003.003 0 .005.003.007.003l.006.002c.003 0 .005.003.007.003l.006.003.007.002c.003 0 .005.003.007.003l.006.003.007.002.006.003c.003 0 .006.003.007.003l.007.002.006.003.007.002c.003 0 .005.003.007.003l.006.003.007.002.02.01.006.002c.003 0 .005.003.007.003l.006.003.007.002c.003 0 .005.003.007.003l.006.003.007.002.007.003.006.002c.003 0 .005.003.007.003l.006.003.007.002c.003 0 .005.003.007.003l.006.003.007.002.006.003c.003 0 .006.003.007.003l.007.002.006.003c.003 0 .006.003.007.003l.007.002c.252.12.558.158.886.09.873-.18 1.581-1.033 1.581-1.906V5.697h-.007l-.03-.026-.053-.05Z"/><path fill="#023887" d="m5.975 8.194-.006-.003-.007-.002c-.003 0-.005-.003-.007-.003l-.006-.003-.007-.002c-.003 0-.005-.003-.006-.003-.003 0-.006-.003-.007-.003l-.007-.002-.006-.003-.007-.002c-.003 0-.005-.003-.007-.003l-.006-.003-.007-.002-.006-.003c-.003 0-.006-.003-.007-.003l-.007-.002-.006-.003c-.003 0-.006-.003-.007-.003l-.007-.002-.006-.003c-.003 0-.005-.003-.007-.003l-.006-.002c-.003 0-.006-.003-.007-.003l-.007-.002-.006-.003c-.003 0-.005-.003-.007-.003l-.006-.002c-.003 0-.006-.003-.007-.003-.003 0-.005-.003-.007-.003l-.006-.002c-.003 0-.006-.003-.007-.003-.003 0-.005-.003-.007-.003l-.006-.002c-.003 0-.005-.003-.007-.003l-.006-.003-.007-.002c-.003 0-.005-.003-.007-.003l-.006-.003-.007-.002-.006-.003-.007-.002c-.003 0-.005-.003-.007-.003l-.006-.003-.007-.002c-.003 0-.005-.003-.007-.003h.165v-.176l.244.073.454-1.002-.008-.003-.008-.002-.008-.003-.008-.002-.008-.003-.007-.003-.008-.002-.008-.003-.008-.003-.008-.002-.008-.003-.008-.003-.008-.002-.008-.003-.008-.003-.008-.002-.008-.003-.008-.002-.008-.003-.008-.003-.008-.002-.007-.003-.008-.003-.004-.002H6.35l-.004-.004h-.004l-.004-.004h-.004l-.004-.004h-.004l-.004-.004h-.004l-.004-.004H6.31l-.004-.004h-.004l-.004-.004h-.004l-.004-.004h-.004l-.004-.004h-.004l-.004-.004H6.27l-.004-.004h-.004l-.004-.004h-.004l-.004-.004h-.004l-.004-.004h-.004l-.003-.004H6.23l-.004-.004h-.004l-.004-.004h-.004l-.004-.004h-.004l-.004-.004h-.004l-.004-.004H6.19l-.004-.004h-.004l-.004-.004h-.004l-.004-.004h-.004l-.004-.004H6.16l-.004-.004h-.004l-.004-.004h-.004L6.14 6.8h-.004l-.004-.004h-.004l-.004-.003H6.12l-.004-.004h-.004l-.003-.004h-.004L6.1 6.78h-.004l-.004-.004h-.004l-.004-.004H6.08l-.004-.004h-.004l-.004-.004h-.004L6.06 6.76h-.004l-.004-.004h-.004l-.004-.004H6.04l-.004-.004h-.004l-.004-.004h-.004L6.02 6.74h-.004l-.004-.004h-.004l-.004-.004H6l-.004-.004h-.004l-.004-.004h-.004L5.98 6.72h-.003l-.004-.004h-.004l-.004-.004H5.96l-.004-.004h-.004l-.004-.004h-.004L5.94 6.7h-.004l-.004-.004h-.004l-.004-.004H5.92l-.004-.004h-.004l-.004-.004h-.004l-.004-.004h-.004l-.004-.004H5.89l-.004-.004h-.004l-.004-.004h-.004l-.004-.003h-.004l-.004-.004h-.004l-.004-.004h-.002l-.004-.004h-.003l-.004-.004h-.002l-.004-.004H5.83v-.003h-.004l-.003-.003-.004-.002h-.002l-.004-.004H5.81l-.004-.004h-.002L5.8 6.625h-.003l-.004-.004H5.79l-.004-.004h-.002l-.004-.004h-.003l-.004-.004h-.003l-.004-.004h-.002l-.004-.004h-.003l-.004-.004h-.002l-.006-.003-.002-.002h-.006l-.002-.004H5.73l-.002-.004h-.006L5.72 6.58h-.005l-.003-.004h-.005l-.003-.004h-.005l-.003-.004h-.005l-.003-.004h-.005L5.68 6.56h-.005l-.003-.004h-.005l-.003-.004H5.66l-.003-.004h-.005l-.003-.004h-.005L5.64 6.54h-.005l-.002-.004h-.006l-.002-.004h-.006l-.002-.004H5.61l-.002-.004h-.006l-.002-.004h-.006l-.002-.004h-.005l-.003-.004H5.58l-.003-.004h-.005l-.003-.004-.008-.002-.008-.003-.008-.003-.008-.002-.008-.003-.008-.002-.008-.003-.008-.003-.007-.002-.008-.003-.008-.003-.008-.002-.008-.003-.008-.003-.008-.002-.008-.003-.008-.003-.008-.002-.008-.003-.008-.003-.008-.002-.008-.003-.008-.002-.008-.003-.007-.003-.008-.002-.008-.003-.008-.003-.008-.002-.008-.003-.008-.003-.008-.002-.008-.003-.008-.003-.008-.002-.008-.003-.008-.003-.008-.002L5.26 6.4 5.251 6.4l-.007-.003-.008-.003-.008-.002-.008-.003-.008-.003-.008-.002-.008-.003-.008-.003-.008-.002-.008-.003-.008-.003-.008-.002-.008-.003-.008-.002-.008-.003-.008-.003-.008-.002-.007-.003-.008-.003-.008-.002-.008-.003-.008-.003-.008-.002-.662-.196c-.562-.166-1.246.204-1.527.823-.263.582-.079 1.177.41 1.386l.006.003c.003 0 .005.003.007.003l.006.002c.003 0 .005.003.007.003l.006.003.007.002c.003 0 .005.003.007.003l.006.003.007.002.006.003c.003 0 .006.003.007.003l.007.002.006.003c.003 0 .006.003.007.003l.007.002.006.003.007.002.006.003c.003 0 .006.003.007.003l.007.002.006.003c.003 0 .005.003.007.003l.006.002c.003 0 .006.003.007.003.003 0 .005.003.007.003l.006.002c.003 0 .006.003.007.003.003 0 .005.003.007.003l.006.002c.003 0 .005.003.007.003l.006.003.007.002c.003 0 .005.003.007.003l.006.002c.003 0 .005.003.007.003l.006.003.007.002c.003 0 .005.003.007.003l.006.003.007.002c.003 0 .005.003.007.003l.006.003.007.002.006.003c.003 0 .006.003.007.003l.007.002.006.003.007.002.006.003c.003 0 .006.003.007.003l.007.002.006.003c.003 0 .006.003.007.003l.007.002.006.003c.003 0 .005.003.007.003l.006.002c.003 0 .006.003.007.003.003 0 .005.003.007.003l.006.002c.003 0 .005.003.007.003l.006.003.007.002c.003 0 .005.003.007.003l.006.002c.003 0 .006.003.007.003.003 0 .005.003.007.003l.006.002c.003 0 .005.003.007.003l.006.003.007.002c.003 0 .005.003.007.003l.006.003.007.002.006.003c.003 0 .006.003.007.003l.007.002.006.003c.003 0 .006.003.007.003l.007.002.006.003.007.002.006.003c.003 0 .006.003.007.003l.007.002.006.003c.003 0 .006.003.007.003l.006.002c.003 0 .006.003.007.003.003 0 .005.003.007.003a.141.141 0 0 1-.01.025c-.03.066-.104.106-.164.088l-.11-.031-.46-.134-.454 1.002.008.002.008.003.008.003.008.002.008.003.008.003.008.002.008.003.008.002.008.003.008.003.008.002.007.003.008.003.008.002.008.003.008.003.008.002.008.003.008.003.008.002.008.003.008.002.008.003.008.003.008.002.008.003.008.003.007.002.008.003.008.003.008.002.008.003.008.003.008.002.008.003.008.003.008.002.008.003.008.002.008.003.008.003.008.002.008.003.007.003.008.002.008.003.008.003.008.002.008.003.008.003.008.002.008.003.008.003.008.002.008.003.008.002.008.003.008.003.008.002.008.003.007.003.008.002.003.003h.005l.003.004h.005l.003.004h.005l.003.004h.005l.003.004h.005l.003.004h.005l.003.004h.005l.003.004h.005l.003.004h.005l.002.004h.006l.002.004h.006l.002.004h.006l.002.004h.006l.002.004H3.3l.002.004h.005l.003.004h.005l.003.003h.005l.003.004h.005l.003.004h.005l.003.004h.005l.003.004h.005l.003.004h.005l.003.004h.005l.003.004h.004l.002.003h.004l.003.003h.004l.002.002h.004l.003.003h.004l.003.003h.004l.002.002h.004l.003.003h.004l.003.002h.004l.002.003h.004l.003.003h.004l.002.002h.004l.003.003h.004l.003.003h.004l.002.002h.004l.003.003h.004l.004.003.004.002h.004l.004.004h.004l.004.004h.004l.004.004h.004l.004.004h.003l.004.004h.004l.004.004h.004l.004.004h.004l.004.004h.004l.004.004h.004l.004.004h.004l.004.004h.004l.004.004h.004l.004.004h.004l.004.004h.004l.004.004h.004l.004.004h.004l.004.004h.004l.004.004h.004l.004.004h.004l.004.004h.004l.003.004h.004l.004.004h.004l.004.004h.004l.004.004h.004l.004.003h.004l.004.004h.004l.004.004h.004l.004.004h.004l.004.004h.004l.004.004h.004l.004.004h.004l.004.004h.004l.004.004h.004l.004.004h.004l.004.004h.004l.004.004h.004l.004.004h.003l.004.004h.004l.004.004h.004l.004.004h.004l.004.004h.004l.004.004h.004l.004.004h.004l.004.004h.004l.004.004h.004l.004.004h.004l.004.004h.004l.004.004h.004l.004.004h.004l.004.004h.004l.004.004h.004l.004.004H3.9l.004.004h.003l.004.004h.004l.004.004h.004l.004.004h.004l.004.004h.004l.004.003h.004l.004.004h.004l.004.004h.004l.004.004h.004l.004.004.008.003.008.003.008.002.008.003.008.003.008.002.008.003.007.003.008.002.008.003.008.002.008.003.008.003.008.002.008.003.008.003.008.002.008.003.008.003.008.002.008.003.008.003.008.002.661.196c.562.165 1.246-.204 1.527-.823.263-.582.08-1.178-.409-1.387l.013.024.024.032ZM12.662 5.175l-.006-.003c-.003 0-.006-.003-.007-.003l-.007-.002-.006-.003c-.003 0-.005-.003-.007-.003l-.007-.002-.006-.003c-.003 0-.005-.003-.007-.003l-.006-.002c-.003 0-.006-.003-.007-.003l-.007-.002-.006-.003c-.003 0-.005-.003-.007-.003l-.006-.002-.007-.003c-.003 0-.005-.003-.007-.003l-.006-.002c-.003 0-.006-.003-.007-.003-.003 0-.005-.003-.006-.003l-.007-.002c-.003 0-.005-.003-.007-.003l-.006-.003-.007-.002c-.003 0-.005-.003-.007-.003l-.006-.003-.007-.002-.006-.003-.007-.002c-.003 0-.005-.003-.007-.003l-.006-.003-.007-.002c-.003 0-.005-.003-.006-.003-.003 0-.006-.003-.007-.003l-.007-.002-.006-.003c-.003 0-.006-.003-.007-.003l-.007-.002-.006-.003c-.003 0-.005-.003-.007-.003l-.006-.002c-.003 0-.006-.003-.007-.003l-.007-.002-.006-.003c-.003 0-.006-.003-.007-.003l-.006-.002c-.003 0-.006-.003-.007-.003-.003 0-.005-.003-.007-.003l-.006-.002c-.003 0-.006-.003-.007-.003-.003 0-.005-.003-.007-.003l-.006-.002c-.003 0-.005-.003-.007-.003l-.006-.003-.007-.002c-.003 0-.005-.003-.007-.003l-.006-.003-.007-.002-.006-.003-.007-.002c-.003 0-.005-.003-.007-.003l-.006-.003-.007-.002c-.003 0-.005-.003-.007-.003l-.006-.003-.007-.002L12.226 5c-.003 0-.006-.003-.007-.003l-.007-.002-.006-.003c-.003 0-.006-.003-.007-.003l-.007-.002-.006-.003c-.003 0-.005-.003-.007-.003l-.006-.002c-.003 0-.006-.003-.007-.003l-.007-.002-.006-.003c-.003 0-.005-.003-.007-.003l-.006-.002c-.003 0-.006-.003-.007-.003-.003 0-.005-.003-.007-.003l-.006-.002c-.003 0-.006-.003-.007-.003-.003 0-.005-.003-.007-.003L12.1 4.95c-.003 0-.005-.003-.007-.003l-.006-.003-.007-.002c-.003 0-.005-.003-.007-.003l-.006-.003-.007-.002-.006-.003-.007-.002c-.003 0-.005-.003-.007-.003l-.006-.003-.007-.002c-.003 0-.005-.003-.006-.003-.003 0-.006-.003-.007-.003l-.007-.002-.006-.003a.139.139 0 0 1-.02-.01l-.007-.002-.006-.003-.007-.002c-.003 0-.005-.003-.007-.003l-.006-.002c-.003 0-.006-.003-.007-.003-.003 0-.005-.003-.006-.003l-.007-.002c-.003 0-.005-.003-.007-.003l-.006-.003-.007-.002c-.003 0-.005-.003-.007-.003l-.006-.003-.007-.002-.006-.003c-.003 0-.006-.003-.007-.003l-.007-.002-.006-.003c-.003 0-.006-.003-.007-.003l-.006-.002c-.003 0-.006-.003-.007-.003l-.03-.013h-.003c-.003 0-.006-.003-.007-.003l-.006-.002c-.003 0-.006-.003-.007-.003-.003 0-.005-.003-.007-.003l-.006-.002c-.003 0-.006-.003-.007-.003l-.007-.003-.006-.002c-.003 0-.005-.003-.007-.003l-.006-.002c-.003 0-.006-.003-.007-.003-.003 0-.005-.003-.007-.003l-.006-.002c-.003 0-.006-.003-.007-.003l-.006-.003-.007-.002c-.003 0-.005-.003-.007-.003l-.006-.003-.007-.002c-.003 0-.005-.003-.007-.003l-.006-.003-.007-.002-.006-.003c-.003 0-.006-.003-.007-.003l-.007-.002-.006-.003-.007-.002-.006-.003c-.003 0-.006-.003-.007-.003l-.007-.002-.006-.003c-.003 0-.006-.003-.007-.003l-.007-.002-.006-.003c-.003 0-.005-.003-.007-.003l-.006-.002c-.003 0-.006-.003-.007-.003-.003 0-.005-.003-.007-.003l-.006-.002c-.003 0-.005-.003-.007-.003l-.006-.003-.007-.002c-.003 0-.005-.003-.007-.003l-.006-.002c-.003 0-.006-.003-.007-.003-.003 0-.005-.003-.006-.003l-.007-.002c-.003 0-.005-.003-.007-.003l-.006-.003-.007-.002c-.003 0-.005-.003-.007-.003l-.006-.003-.007-.002-.006-.003c-.003 0-.006-.003-.007-.003l-.007-.002-.006-.003c-.003 0-.006-.003-.007-.003l-.006-.002a1.509 1.509 0 0 0-.952-.097l-1.253.257v3.703h.007v.003h.006v.003h.007v.002h.007v.003h.006v.003h.007v.002h.006v.003h.007v.002h.007v.003h.006v.003h.007v.002h.007v.003H9.3v.003h.007v.002h.006v.003h.007v.003h.007v.002h.006v.003h.007v.003h.006v.002h.007v.003h.007v.003h.006V8.6h.007v.003h.007v.002h.006v.003h.007v.003h.006v.002h.007v.003h.007v.003h.006v.002h.007v.003h.006v.003h.007v.002h.007v.003h.006v.003h.007v.002h.007v.003h.006v.003h.007v.002h.006v.003h.007v.002h.007v.003h.006v.003h.007v.002h.007v.003h.006v.003h.007v.002h.006v.003h.007v.003h.007v.002h.006v.003h.007v.003h.006v.002h.007v.003h.007v.003h.006v.002h.007v.003h.006v.002h.007v.003h.007v.003h.006v.002h.007v.003h.007v.003h.006v.002h.007v.003h.006v.003h.007v.002h.007v.003h.006v.003h.007v.002h.007v.003h.006v.003h.007v.002h.006v.003h.007v.002h.007v.003h.006v.003h.007v.002h.006v.003h.007v.003h.007v.002h.006v.003h.007v.003h.007v.002h.006v.003h.007v.003h.006v.002h.007v.003h.007v.002h.006v.003h.007v.003h.006v.002h.007v.003h.007v.003h.006v.002h.007v.003h.007v.003h.006V8.8h.007v.003h.006v.003h.01l.004.002.002.002h.004l.003.002.004.002h.002l.004.002.003.002h.004l.003.002.004.001.002.002.004.001.003.001.004.002.003.001.003.001.003.002.004.001.003.001.004.002.002.001.004.001.003.002.004.001.003.001.004.002.002.001.004.001.003.002h.004l.002.002.004.002h.003l.004.002.003.002h.004l.002.002.004.002h.003l.004.002.003.001.003.002.003.001.004.001.003.002.004.001.002.001.004.002.003.001.004.001.003.002.004.001.002.001.004.002.003.001.004.001.003.002.003.001.003.001.004.002.003.001.004.001.002.002h.004l.003.002.004.002h.003l.004.002.002.002h.004l.003.002.004.002h.002l.004.002.003.001.004.002.003.001.004.001.002.002.004.001.003.001.004.002.002.001.004.001.003.002.004.001.003.001.004.002.002.001.004.001.003.002.004.001.003.001.004.002h.002l.004.002.003.002h.004l.002.002.004.002h.003l.004.002.003.002h.004l.002.002.004.002h.003l.004.002.002.001.004.002.003.001.004.001.003.002.004.001.002.001.004.002.003.001.004.001.003.002.004.001.002.001.004.002.003.001.004.001h.006v.006h.007v.002h.007v.003h.006v.003h.007v.002h.006v.003h.007v.002h.007v.003h.006V9h.007v.002h.007v.003h.006v.003h.007v.002h.006v.003h.007v.003h.007v.002h.006v.003h.007v.003h.006v.002h.007v.003h.007v.003h.006v.002h.007v.003l1.234-.254v-.309l.014-.002h.005c.937-.193 1.697-1.109 1.697-2.047 0-.587-.299-1.045-.754-1.256l.003.003.005.003Z"/><path fill="#023887" d="M16.227 5.126V4.014h-.007V4.01h-.007v-.002h-.007v-.003h-.007v-.004h-.007v-.003h-.008v-.004h-.006v-.002h-.008v-.003h-.007v-.004h-.006v-.002h-.008V3.98h-.007v-.004h-.007v-.003h-.008v-.002h-.006v-.004h-.008v-.003h-.007v-.003H16.1v-.004h-.008v-.002h-.007v-.003h-.007v-.004h-.007v-.003h-.007v-.002h-.004v-.001h-.004v-.003h-.004v-.001h-.003v-.002h-.004v-.001h-.002v-.001h-.004v-.002h-.004V3.93h-.004v-.002h-.003v-.001h-.004v-.001h-.002v-.002h-.004v-.001h-.004V3.92h-.004v-.001h-.003v-.001h-.004v-.002h-.004v-.001h-.004v-.001h-.003v-.003h-.003V3.91h-.003v-.002h-.004v-.001h-.004v-.001h-.004v-.002h-.003v-.002h-.004V3.9h-.002v-.001h-.004v-.001h-.004v-.001h-.004v-.002h-.003v-.002h-.004v-.002h-.004V3.89h-.004v-.001h-.002v-.002h-.004v-.001h-.003v-.003h-.004v-.001h-.004v-.001h-.004v-.002h-.003v-.001h-.004v-.001h-.002v-.003h-.004v-.001H15.9v-.002h-.004V3.87h-.003v-.003h-.008v-.002h-.004v-.002h-.002v-.001h-.004v-.001h-.003v-.003h-.008v-.002h-.004v-.002h-.002v-.001h-.004v-.001h-.003v-.003h-.008v-.003h-.004v-.001h-.003v-.001h-.004v-.002h-.004V3.84h-.006v-.003h-.004v-.001h-.003v-.002h-.004v-.001h-.004V3.83h-.004v-.001h-.002v-.001h-.004v-.002h-.003v-.001h-.004v-.001h-.004v-.003h-.004V3.82h-.002v-.002h-.004v-.001h-.004v-.001h-.004v-.002h-.003v-.002h-.004v-.001h-.003v-.002h-.004v-.001h-.004v-.001h-.004v-.002h-.002v-.002h-.004v-.002h-.003V3.8h-.004v-.001h-.004v-.002h-.004v-.001h-.002v-.003h-.004v-.001h-.004v-.001h-.004v-.002h-.003v-.001h-.004v-.001h-.003v-.003h-.004v-.001h-.003v-.002h-.004V3.78h-.003v-.001h-.004v-.002h-.003v-.002h-.004v-.002h-.004v-.001h-.004v-.001h-.002V3.77h-.004v-.002h-.004v-.002h-.004v-.002h-.003v-.001h-.004v-.001h-.003V3.76h-.003v-.001h-.004v-.003h-.004v-.001h-.003v-.001h-.004v-.002h-.003V3.75h-.008v-.003h-.004v-.001h-.006v-.003h-.007l-.002-.001v-.003h-.004v-.001h-.007v-.003h-.007l-.002-.001v-.003h-.004V3.73h-.008v-.003h-.007l-.002-.001v-.003h-.004v-.001h-.007v-.003h-.007v-.002h-.006v-.003h-.007v-.003h-.007v-.002h-.006v-.003h-.008v-.003h-.007v-.002h-.008v-.003h-.006v-.003h-.007v-.002h-.008V3.69h-.006v-.003h-.008v-.002h-.008v-.003h-.007V3.68h-.003v-.002h-.005v-.002h-.006v-.003h-.007V3.67h-.008v-.004h-.007v-.002h-.008v-.003h-.007v-.004h-.007v-.003h-.008v-.002h-.007v-.004h-.006v-.003h-.008v-.003h-.007v-.003h-.01v-.003h-.007v-.004h-.007v-.003h-.008v-.002h-.006v-.004h-.007V3.62h-.008v-.003h-.006v-.004h-.008v-.002h-.007v-.003h-.006v-.004h-.009v-.003h-.006v-.002h-.007v-.004h-.008v-.003h-.006V3.59h-.008v-.004h-.007v-.003h-.006V3.58h-.008v-.004h-.007v-.002h-.007v-.003h-.007v-.004h-.007v-.003h-.008v-.002h-.007v-.004h-.006v-.003h-.008v-.004h-.007v-.002h-.007v-.003h-.007v-.004h-.007v-.003h-.008v-.002h-.007v-.004h-.006V3.53h-.008v-.003h-.007v-.004h-.006v-.002h-.008v-.003h-.007v-.004h-.008v-.003h-.006v-.002h-.007v-.004h-.008v-.003h-.007V3.5h-.006v-.004h-.008v-.003H15V3.49h-.008v-.004h-.006v-.002h-.007v-.003h-.008v-.004h-.007v-.003h-.006v-.002h-.008v-.004h-.007v-.003h-.008v-.002h-.006v-.004h-.007v-.003h-.008v-.003h-.006v-.004h-.007v-.002h-.008v-.003l-1.2.246-1.268.261v3.703h.007v.004h.007v.003h.008v.002h.006v.004h.007v.003h.008v.003h.006v.004h.008v.002h.007v.003h.007v.004h.007v.003h.007v.002h.007v.004h.008v.003h.006V7.7h.008v.004h.007v.003h.006v.003h.008v.004h.007v.002h.007v.003h.007v.004h.007v.003h.008v.002h.007v.004h.006v.003h.008v.003h.007v.003h.007v.003h.007v.003h.007v.004h.008v.002h.007v.003h.006v.004h.008v.003h.007v.004h.006v.002h.008v.003h.007v.004h.008v.003h.006v.002h.007v.004h.008v.003h.007v.002h.008v.004h.006v.003h.007V7.8h.008v.004h.006v.002h.007v.003h.008v.004h.007v.003h.007v.002h.007v.004h.007v.003h.008v.002h.006v.004h.007v.003h.008v.003h.006v.004h.008v.002h.007v.003h.007v.004h.008v.003h.006v.002h.007v.003h.008v.003h.006v.002h.008v.003h.008v.003h.007v.002h.008v.003h.006v.002h.007v.003h.008v.003h.007v.002h.007v.003h.007v.003h.007v.002h.008v.003h.006v.003h.007V7.9h.008v.003h.006v.003h.008v.002h.007v.003h.007v.001h.006v.003h.007v.002h.006v.003h.007v.003h.007v.002h.006v.003h.007v.003h.006v.002h.007v.002h.007v.002h.006v.003h.007v.001h.007v.003h.006v.001h.007v.003h.003v.001h.003v.002h.003v.002h.004v.002h.004v.001h.004v.001h.003v.001h.004v.002h.002v.002h.004v.002h.004v.001h.004v.001h.003v.002h.004v.001h.004v.003h.004v.001h.002v.001h.004v.002h.003v.001h.004v.001h.004v.003h.004v.001h.003v.002h.004v.001h.002v.001h.004v.002h.004v.002h.004v.002h.003v.001h.004v.001h.004v.002h.004v.001h.002v.002h.004v.002h.003v.001h.004v.001h.004v.002h.004v.001h.002v.003h.004v.001h.003v.001h.004v.002h.004v.001h.004v.001h.003v.003h.004v.001h.004v.002h.004v.001h.002v.001h.004v.002h.003v.002h.004v.002h.004v.001h.004v.001h.002v.003h.007v.003h.004v.001h.004v.001h.004v.002h.003v.002h.007v.003h.004v.001h.003v.001h.004v.002h.003v.002h.008v.003h.004v.001h.002v.002h.004v.001h.003v.003h.008v.002h.004v.002h.002v.001h.004v.001h.004v.003h.004v.001h.003v.002h.004v.001h.003v.001h.004v.002h.003v.002h.005v.002h.002v.001h.004v.001h.003v.001h.004v.002h.004v.002h.004v.002h.002v.001h.004v.001h.004v.002h.004v.001h.003v.003h.004V8.1h.003v.001h.003v.002h.004v.001h.004v.001h.003v.003h.004v.001h.003v.002h.004v.001h.004v.001h.004v.002h.002v.002h.004v.002h.004v.001h.004v.001h.003v.002h.004v.001h.002v.003h.004v.001h.004v.001h.004v.001h.003v.002h.004v.001h.003v.003h.004v.001h.003v.001h.004v.002h.003v.001h.004v.001h.008v.004h.007v.003h.006v.003h.008v.004h.007v.002h.006v.003h.008v.004h.007v.003h.008v.002h.007v.004h.006v.003h.008v.002h.007v.004h.006v.003h.008v.004h.007v.003h.008v.002h.006v.004h.007v.003h.008v.003h.007v.004h.006v.002h.008v.003l2.469-.507V6.596h-.007v-.004h-.006v-.003h-.008v-.003h-.007v-.004h-.006V6.58h-.008v-.003h-.007v-.004h-.008v-.002h-.006v-.003h-.007v-.004h-.008v-.003h-.007v-.002h-.006v-.004h-.008v-.003h-.007v-.003h-.008v-.004h-.006v-.002h-.007V6.54h-.008v-.004h-.006v-.003h-.007v-.002h-.008v-.004h-.007v-.003h-.004v-.001h-.004v-.001h-.004V6.52h-.002v-.002h-.004v-.002h-.003v-.001h-.004v-.001h-.004v-.002h-.004v-.001h-.002v-.003h-.004v-.001h-.003v-.001h-.004v-.002h-.004v-.002h-.007v-.003H16v-.001h-.004v-.002h-.004v-.001h-.002v-.003h-.007V6.49h-.004v-.002h-.004v-.001h-.004v-.001h-.002v-.003h-.007v-.002h-.004v-.002h-.004v-.001h-.004v-.001h-.002v-.003h-.004v-.001h-.004v-.002h-.004V6.47h-.003v-.001h-.004v-.002h-.003v-.002h-.004v-.002h-.004v-.001h-.004v-.001h-.002v-.002h-.004v-.001h-.003v-.003h-.004v-.001h-.004v-.001h-.004v-.002h-.002V6.45h-.004v-.001h-.004v-.003h-.004v-.001h-.003v-.001h-.004v-.002h-.003l.194-.04v-.988h-.008v-.003h-.007v-.002h-.006v-.004h-.008v-.003h-.007V5.4h-.007v-.004h-.008v-.003h-.006V5.39h-.008v-.004h-.007v-.002h-.006v-.003h-.008v-.004h-.007v-.003h-.007V5.37h-.008v-.002h-.006v-.003h-.008v-.004h-.007v-.002h-.006v-.003h-.008v-.004h-.007v-.003h-.006v-.002h-.008v-.004h-.007V5.34h-.004v-.001h-.004v-.002h-.004v-.001h-.003v-.003h-.004v-.001h-.002v-.001h-.004v-.002h-.004v-.001h-.004v-.001h-.003v-.003h-.004v-.001h-.002v-.001h-.004V5.32h-.004v-.001h-.004v-.001h-.003v-.003h-.004v-.001h-.004v-.002h-.004v-.001h-.002V5.31h-.004v-.002h-.003v-.002h-.004v-.002h-.004v-.001h-.004v-.001h-.003V5.3h-.004v-.001h-.002v-.003h-.004v-.001h-.004v-.001h-.004v-.002h-.003v-.001h-.004V5.29h-.004v-.003h-.004v-.001h-.002v-.002h-.004v-.001h-.003v-.001h-.004V5.28h-.004v-.002h-.004v-.001h-.003v-.002h-.004v-.001h-.002v-.001h-.004v-.002h-.004v-.002h-.004v-.002h-.003v-.001h-.004v-.001h-.004v-.002h-.004v-.001h-.002l.55-.112z"/><path fill="#023887" d="M19.687 4.9c0-.585-.298-1.042-.75-1.254l-.007-.002c-.003 0-.005-.003-.007-.003l-.006-.002c-.003 0-.006-.003-.007-.003-.003 0-.005-.003-.007-.003l-.006-.002c-.003 0-.006-.003-.007-.003-.003 0-.005-.003-.006-.003l-.007-.002c-.003 0-.005-.003-.007-.003l-.006-.003-.007-.002c-.003 0-.005-.003-.007-.003l-.006-.003-.007-.002-.006-.003-.007-.002c-.003 0-.005-.003-.007-.003l-.006-.003-.007-.002-.006-.003c-.003 0-.006-.003-.007-.003l-.007-.002-.006-.003c-.003 0-.006-.003-.007-.003l-.007-.002-.006-.003c-.003 0-.005-.003-.007-.003l-.006-.002c-.003 0-.006-.003-.007-.003-.003 0-.005-.003-.007-.003l-.006-.002c-.003 0-.006-.003-.007-.003l-.006-.002c-.003 0-.006-.003-.007-.003-.003 0-.005-.003-.007-.003l-.006-.002c-.003 0-.006-.003-.007-.003-.003 0-.005-.003-.007-.003l-.006-.002c-.003 0-.005-.003-.007-.003l-.006-.003-.007-.002c-.003 0-.005-.003-.007-.003l-.006-.003-.007-.002-.007-.003-.006-.003-.007-.002-.006-.003-.007-.002c-.003 0-.005-.003-.007-.003l-.006-.003-.007-.002-.006-.003c-.003 0-.006-.003-.007-.003l-.007-.002-.006-.003c-.003 0-.005-.003-.007-.003l-.006-.002c-.003 0-.006-.003-.007-.003-.003 0-.005-.003-.007-.003l-.006-.002c-.003 0-.006-.003-.007-.003-.003 0-.005-.003-.007-.003l-.006-.002c-.003 0-.005-.003-.007-.003l-.006-.002c-.003 0-.006-.003-.007-.003-.003 0-.005-.003-.007-.003l-.006-.002c-.003 0-.006-.003-.007-.003-.003 0-.005-.003-.006-.003l-.007-.002c-.003 0-.005-.003-.007-.003l-.006-.003-.007-.002c-.003 0-.005-.003-.007-.003l-.006-.003-.007-.002-.006-.003c-.003 0-.006-.003-.007-.003l-.007-.002-.006-.003-.007-.002c-.003 0-.005-.003-.006-.003-.003 0-.006-.003-.007-.003l-.007-.002-.006-.003c-.003 0-.006-.003-.007-.003l-.007-.002-.006-.003c-.003 0-.005-.003-.007-.003l-.006-.002c-.003 0-.006-.003-.007-.003-.003 0-.005-.003-.007-.003l-.006-.002c-.003 0-.006-.003-.007-.003l-.006-.002c-.003 0-.006-.003-.007-.003l-.025-.01h-.002l-.006-.003c-.003 0-.005-.003-.007-.003l-.006-.003-.007-.002c-.003 0-.005-.003-.007-.003l-.006-.003-.007-.002-.007-.003-.006-.003-.007-.002-.006-.003-.007-.002c-.003 0-.005-.003-.007-.003l-.006-.003-.007-.002-.006-.003c-.003 0-.006-.003-.007-.003l-.007-.002-.006-.003c-.003 0-.006-.003-.007-.003a.49.49 0 0 0-.038-.017h-.003l-.007-.002-.006-.003c-.003 0-.005-.003-.007-.003l-.006-.002c-.003 0-.006-.003-.007-.003-.003 0-.005-.003-.007-.003l-.006-.002c-.003 0-.005-.003-.007-.003l-.006-.003-.007-.002c-.003 0-.005-.003-.007-.003l-.006-.003-.007-.002c-.003 0-.005-.003-.007-.003l-.006-.003-.007-.002-.006-.003-.007-.002c-.003 0-.005-.003-.007-.003l-.006-.003-.007-.002-.006-.003c-.003 0-.006-.003-.007-.003l-.007-.002-.006-.003c-.003 0-.006-.003-.007-.003l-.006-.002c-.003 0-.006-.003-.007-.003-.003 0-.005-.003-.007-.003l-.006-.002c-.003 0-.006-.003-.007-.003-.003 0-.005-.003-.007-.003l-.006-.002c-.003 0-.005-.003-.007-.003l-.006-.002c-.003 0-.006-.003-.007-.003l-.007-.003-.006-.002c-.003 0-.006-.003-.007-.003-.003 0-.005-.003-.006-.003l-.007-.002c-.003 0-.005-.003-.007-.003l-.006-.003-.007-.002c-.003 0-.005-.003-.007-.003l-.006-.003-.007-.002-.006-.003c-.003 0-.006-.003-.007-.003l-.007-.002-.006-.003-.007-.002c-.003 0-.005-.003-.006-.003-.003 0-.006-.003-.007-.003l-.007-.002-.006-.003c-.003 0-.006-.003-.007-.003l-.007-.002a1.501 1.501 0 0 0-.946-.1l-1.274.262v3.704h.007v.002h.006v.003h.007v.003h.007v.002h.006v.003h.007v.003h.007v.002h.006v.003h.007v.003h.006v.002h.007v.003h.007v.003h.006v.002h.007v.003h.006v.003h.007v.002h.007v.003h.006v.002h.007v.003h.007v.003h.006v.002h.007v.003h.006v.003h.007v.002h.007v.003h.006v.003h.007v.002h.006v.003h.007v.003h.007v.002h.006v.003h.007v.002h.007v.003h.006v.003h.007v.002h.006v.003h.007v.003h.007v.002h.006v.003h.007v.003h.006v.002h.007v.003h.007v.003h.006v.002h.007v.003h.007v.003h.006v.002h.007v.003h.006v.002h.007v.003h.007v.003h.006v.002h.007v.003h.006v.003h.007v.002h.007v.003h.006v.003h.007v.002h.007v.003h.006v.003h.007v.002h.006v.003h.007v.003h.007v.002h.006v.003h.007v.002h.006v.003h.007v.003h.007v.002h.006V7.2h.007v.003h.007v.002h.006v.003h.007v.003h.006v.002h.007v.003h.007v.003h.006v.002h.007v.003H16v.003h.006v.002h.007v.003h.006v.002h.007v.003h.007v.003h.006v.002h.007v.003h.006v.003h.007v.002h.007v.003h.006v.003h.007v.002h.006v.003h.007v.003h.007v.002h.006v.003h.007v.002h.007v.003h.006v.003h.007v.002h.006v.003h.007l.003.001.004.002.002.001.004.001.003.002.004.001.003.001.003.002.003.001.004.001.003.002.004.001.002.001.004.002h.003l.004.002.003.002h.004l.002.002.004.002h.003l.004.002.002.002h.004l.003.002.004.001.003.002.004.001.002.001.004.002.003.001.004.001.003.002.003.001.003.001.004.002.003.001.004.001.002.002.004.001.003.001.004.002.003.001.004.001.002.002h.004l.003.002.004.002h.002l.004.002.003.002h.004l.003.002.004.002h.002l.004.002.003.001.004.002.002.001.004.001.003.002.004.001.003.001.004.002.002.001.004.001.003.002.004.001.003.001.004.002.002.001.004.001.003.002.004.001.002.001.004.002.003.001.004.001.003.002h.004l.002.002.004.002h.003l.004.002.002.002h.005l.002.002.004.002h.003l.004.002.002.001.004.002.003.001.004.001.003.002.004.001.002.001.004.002.003.001.004.001.002.002.004.001.003.001.004.002.003.001.004.001.002.002.004.001.003.001.004.002h.003l.004.002.002.002h.004l.003.002.004.002h.002l.004.002.003.002h.004l.003.002.004.001.002.002.004.001.003.001.004.002h.006v.005h.007v.003h.007v.002h.006v.003h.007v.003h.006v.002h.007v.003h.007v.003h.006v.002h.007v.003h.007v.003h.006v.002h.007v.003h.006v.002h.007v.003h.007v.003h.006v.002h.007v.003h.006v.003h.007v.002h.007v.003h.006v.003h.007v.002l1.234-.254V7.01v.002h.006l.002.001h.002l.002.002.003.001h.001l.003.001.003.002.004.001.002.001h.002l.002.002.003.001h.001l.003.001.002.002h.002l.002.001.003.001h.001l.003.002.003.001h.001l.003.001.002.002h.002l.002.001.003.001h.001l.003.002h.003l.003.002.003.002h.004l.003.002h.001l.003.002h.004l.002.002.003.002h.004l.003.002.004.002h.004l.002.002.003.001h.001l.003.002.002.001h.002l.002.001.003.002h.001l.003.001.003.001h.001l.003.002.002.001h.002l.002.001.003.002h.001l.003.001.002.001h.002l.002.002.003.001h.001l.003.001.003.002h.001l.003.001.005.001.003.003h.005l.003.003h.005l.003.002h.005l.003.003h.005l.002.003h.006l.002.002h.006l.002.003h.006l.002.002h.005l.003.003h.005l.003.003h.005l.003.002h.005l.003.003h.005l.003.003h.005l.003.002h.005l.003.003h.005l.003.003h.005l.003.002h.005l.003.003h.005l.003.003h.005l.003.002h.005l.002.003h.006l.002.003h.006l.002.002 1.235-.254-.393-.706c.319-.374.516-.847.516-1.326l-.003.016.023.029Z"/><path fill="url(#a)" d="M10.319 5.19c.937-.193 1.698-.712 1.698-1.65s-.761-1.303-1.698-1.11l-1.254.256v3.705l1.234-.254.019-.947h.001Zm0-.916-.019.004v-.926l.019-.004c.255-.052.462.112.462.368a.596.596 0 0 1-.462.557v.001ZM4.892 6.84c-.28.622-.966.99-1.527.823l-.662-.195.454-1.003.46.133.109.031c.06.018.134-.022.164-.088.03-.067.005-.135-.054-.154l-.504-.147c-.563-.164-.792-.803-.51-1.423.28-.622.966-.99 1.527-.823l.662.194-.454 1.003-.578-.17c-.06-.018-.134.022-.164.088-.03.068-.006.135.054.154l.512.15c.562.164.791.803.51 1.424v.003ZM8.48 5.09c0 .872-.708 1.727-1.583 1.906-.873.18-1.582-.384-1.582-1.257V3.617l1.234-.254v2.122c0 .192.157.315.348.276a.45.45 0 0 0 .348-.418V3.221l1.235-.254v2.122Zm5.147-2.37v.246l1.021-.21v.988l-1.021.21V4.2l1.2-.246v1.11l-2.47.508V1.867l1.269-.26 1.2-.246v1.11l-1.2.246v.003Zm3.33 1.81 1.208-.25-.394-.944c.319-.373.517-.609.517-1.088 0-.934-.755-1.537-1.688-1.35l-1.274.262v3.704l1.234-.254v-.943l.397.864Zm-.366-1.709-.03.007v-.926l.03-.007c.255-.051.461.113.461.368a.596.596 0 0 1-.461.557v.001Z" transform="translate(0 2)"/><path fill="#023887" d="M8.121 16.983v-.009l-.014.003v-.009l-.015.002v-.009l-.013.003v-.01l-.015.003v-.009l-.013.002v-.009l-.014.003v-.009l-.015.002v-.009l-.013.003v-.01l-.015.003v-.009l-.013.002v-.009l-.014.003v-.01l-.014.003v-.009l-.014.002v-.009l-.015.003v-.009l-.013.002v-.009l-.015.003v-.01l-.013.003v-.009l-.014.002v-.009l-.015.003v-.009l-.013.002v-.009l-.015.002v-.009l-.013.003v-.009h-.008v-.003h-.007v-.004h-.006v-.003h-.007v-.004h-.006v-.002h-.007v-.004h-.008v-.003h-.007v-.003h-.006v-.002h-.007v-.003h-.008v-.002H7.73v-.003h-.007v-.003h-.007v-.004H7.71v-.002h-.007v-.004h-.008v-.003h-.006v-.004h-.007v-.003h-.007v-.003h-.008v-.003h-.006v-.003h-.007v-.002h-.006v-.003h-.007v-.003h-.007v-.002h-.008v-.003H7.62v-.004h-.007v-.003h-.006v-.004h-.008v-.002h-.007v-.004h-.007v-.003h-.006v-.003h-.007v-.002h-.006v-.003h-.008v-.003h-.007v-.002h-.007v-.003h-.006v-.004H7.53v-.002h-.007v-.004h-.006v-.003H7.51v-.004h-.007v-.003h-.006v-.004h-.008v-.002h-.007v-.003h-.006v-.003h-.007v-.002h-.008v-.003h-.007v-.002h-.006v-.003h-.007v-.004h-.006v-.003h-.007v-.004H7.42v-.002h-.007v-.004h-.006v-.003H7.4v-.004h-.008v-.003h-.006v-.002h-.007v-.003h-.007v-.003h-.006v-.002h-.007v-.003h-.008v-.002h-.006v-.004h-.007v-.003h-.007v-.004h-.008v-.003h-.006v-.004H7.31v-.002h-.006v-.003h-.007v-.003H7.29V16.6h-.008v-.003h-.006v-.003h-.007v-.002h-.006v-.004h-.008v-.003h-.007v-.004h-.007v-.002h-.006v-.004h-.007v-.003h-.006v-.004h-.008v-.003h-.007v-.002H7.2v-.003h-.006v-.003h-.008v-.002h-.007v-.003h-.006v-.003h-.007v-.003h-.007v-.003h-.006v-.004h-.008v-.003h-.007v-.004h-.006v-.002h-.007v-.004h-.008v-.003H7.11v-.003h-.006v-.002h-.007v-.003h-.006v-.003h-.007v-.002h-.008v-.003h-.007v-.004h-.006v-.002h-.007v-.005h-.008v-.002h-.006v-.004h-.007v-.003h-.007v-.002h-.006v-.003h-.007v-.003h-.008v-.002h-.006v-.003h-.007v-.003h-.007v-.004h-.008v-.002h-.006v-.004h-.007v-.003H6.96v-.004h-.007v-.002h-.007v-.004h-.008v-.003h-.005v-.001h-.006v-.006H6.92v-.001h-.008v-.005h-.005v-.002H6.9v-.005h-.007v-.004h-.006v-.002h-.005v-.005h-.008v-.002h-.006v-.004h-.006v-.003h-.007v-.002h-.008v-.006h-.005v-.001h-.007v-.005h-.006v-.002h-.007v-.005h-.005v-.004h-.008v-.002h-.006v-.005h-.006v-.002H6.79v-.004l.199-3.173-1.147-.583-.015.002v-.009l-.013.003v-.01l-.015.003v-.009l-.013.002v-.009l-.015.003v-.009l-.014.002v-.009l-.013.003v-.01l-.015.003v-.009l-.013.002v-.009l-.015.003v-.01l-.014.003v-.009l-.013.002v-.009l-.015.003v-.009l-.013.002v-.009l-.015.003v-.01l-.014.003v-.009l-.014.002v-.009l-.014.003v-.009l-.013.002v-.009l-.015.002v-.009l-.014.003v-.009l-.014.002v-.009l-.014.003v-.01h-.007v-.002h-.006v-.003h-.008v-.002h-.007v-.003h-.007v-.003h-.006v-.004h-.007v-.002h-.007v-.004h-.007v-.003H5.45v-.004h-.007v-.003h-.006v-.004h-.008v-.002h-.007v-.003h-.006v-.003h-.007v-.002h-.007v-.003h-.006v-.003h-.008v-.002h-.007v-.004h-.006v-.003h-.007v-.004H5.36v-.002h-.007v-.004h-.006v-.003H5.34v-.003h-.006v-.002h-.007v-.003h-.008v-.003h-.007v-.002h-.006v-.003h-.007v-.004h-.008v-.003h-.006v-.003h-.007v-.003h-.007v-.004h-.006v-.003h-.007v-.004H5.25v-.002h-.006v-.003h-.007v-.003H5.23v-.002h-.008v-.003h-.006v-.003h-.007v-.002h-.006v-.004h-.008v-.003h-.007v-.004H5.18v-.002h-.007v-.004h-.006v-.003H5.16v-.004h-.008v-.003h-.006v-.002h-.007v-.003h-.007v-.003h-.008v-.002h-.006v-.003h-.007v-.003h-.006v-.004h-.007v-.002h-.007v-.004h-.008v-.003h-.006v-.004H5.07v-.002h-.006v-.003h-.008v-.003h-.007v-.002h-.007v-.003h-.006v-.003h-.007v-.002h-.006v-.004h-.008v-.003h-.007v-.004h-.007v-.003h-.006v-.003h-.008v-.003H4.98v-.004h-.006v-.003h-.007v-.002H4.96v-.003h-.006v-.003h-.008v-.002h-.007v-.003h-.006v-.003h-.007V12.2h-.008v-.002h-.007v-.004h-.006v-.003h-.007v-.004h-.006v-.002h-.007v-.004h-.008v-.003H4.87v-.003h-.006v-.002h-.007v-.003h-.008v-.003h-.006v-.002h-.007v-.003h-.007v-.004h-.006v-.003h-.007v-.004h-.008v-.002h-.006v-.004h-.007v-.003h-.007v-.004H4.78v-.002h-.006v-.003h-.007v-.003h-.006v-.002h-.007v-.003h-.007v-.004h-.008v-.003h-.006v-.004h-.007v-.002H4.72v-.004h-.008v-.003h-.007v-.004h-.007v-.002h-.006v-.003h-.007v-.003h-.006v-.002h-.008v-.003h-.007v-.003h-.007v-.002h-.006v-.004h-.008v-.003h-.005v-.004h-.007v-.003h-.007v-.004h-.006v-.002h-.006v-.003h-.008v-.005h-.005v-.002h-.006v-.005h-.007v-.001h-.008v-.005h-.005v-.002h-.007v-.004h-.007v-.004h-.006v-.002h-.005v-.004H4.54v-.003h-.006v-.004h-.006v-.003h-.007v-.001h-.008v-.005h-.005v-.001h-.007v-.006h-.006v-.001h-.007v-.005h-.005v-.004h-.008v-.003H4.47v-.004h-.007v-.003h-.007v-.004h-.008v-.002h-.005v-.003h-.008v-.005h-.007v-.001h-.007v-.006h-.006v-.001h-.009v-.005h-.005v-.002h-.008v-.005h-.007v-.001h-.008v-.006h-.005v-.001h-.008v-.005h-.007v-.003l-.008.003v-.007h-.005v-.003h-.009v-.005h-.005v-.001h-.008v-.005h-.007v-.002h-.008v-.005h-.005v-.001h-.008v-.006h-.007V11.9H4.28v-.005h-.005v-.002h-.009v-.005H4.26v-.003h-.007v-.003h-.007v-.003h-.008v-.005h-.005v-.002h-.008v-.005h-.007v-.001H4.21v-.006h-.005v-.001h-.009v-.005H4.19v-.002h-.008v-.005h-.006v-.001h-.008v-.005h-.005v-.003h-.008v-.005h-.007v-.002H4.14v-.005h-.005v-.001h-.009v-.006H4.12v-.001l-.014.003v-.01l-.014.003v-.009l-.014.002v-.009l-.013.003v-.009l-.015.002v-.009l-.014.003v-.01l-.014.003v-.009l-.014.002v-.009l-.013.003v-.01l-.015.003v-.009l-.015.003v-.01l-.013.003v-.009l-.014.002v-.009l-.014.003v-.01l-.014.003v-.009l-.015.002v-.009l-.013.003v-.009l-.015.002v-.009l-.013.003v-.01l-.014.003v-.009l-.015.002v-.009l-.013.003v-.009l-.015.002v-.009l-.013.003v-.01l-.014.003v-.009l-.015.002v-.009l-.013.003v-.01l-.015.003v-.009l-.013.002v-.009l-.015.003v-.009l-.014.002v-.009l-.013.003v-.01l-.015.003V11.6l-.013.002v-.009l-.015.003v-.009l-.014.002v-.009l-.013.002v-.009l-.015.003v-.009l-.013.002v-.009l-.015.003v-.01l-.014.003v-.009l-.014.002v-.009l-.014.003v-.009l-.013.002v-.009l-.015.003v-.01l-.014.003v-.009l-.014.002v-.009l-.014.003v-.01l-.013.003v-.009l-.015.002v-.009l-.015.003v-.009l-.013.002v-.009l-.014.003v-.01l-.014.003v-.009l-.014.002v-.009l-.015.003v-.009l-.013.002v-.009l-.015.003v-.01l-.013.003v-.009l-.014.002v-.009l-.015.003v-.01l-.013.003v-.009l-.015.003v-.01l-2.316.477v6.951l.014-.002v.009l.013-.003v.009l.015-.002v.009l.013-.003v.01l.015-.003v.009l.014-.002v.009l.013-.003v.009l.015-.002v.009l.013-.003v.01l.015-.003v.009l.014-.002v.009l.014-.003v.01l.014-.003v.009l.013-.002v.009l.015-.003v.009l.015-.002v.009l.013-.003v.01l.014-.003v.009l.014-.002v.009l.014-.003v.009l.015-.002v.009l.013-.002v.009l.014-.003v.009l.014-.002v.009l.014-.003v.01l.015-.003v.009l.013-.002v.009l.015-.003v.009l.013-.002v.009l.014-.003v.01l.015-.003v.009l.013-.002v.009l.015-.003v.01l.013-.003v.009l.014-.002v.009l.015-.003v.009l.013-.002v.009l.015-.003v.01l.013-.003v.009l.015-.002v.009l.014-.003v.009l.013-.002v.009l.015-.003v.01l.013-.003v.009l.015-.002v.009l.014-.003v.01l.014-.003v.009l.014-.003v.01l.013-.003v.009l.015-.002v.009l.014-.003v.01l.014-.003v.009l.014-.002v.009l.013-.003v.009l.015-.002v.009l.015-.003v.01l.013-.003v.009l.014-.002v.009l.014-.003v.01l.014-.003v.009l.013-.003v.01l.015-.003v.009l.014-.002v.009h.006v.001h.008v.006h.006v.001h.008v.005h.006v.002h.007v.005h.007v.001h.008v.005h.007v.003l.008-.003v.007h.005v.003h.008v.005h.006v.001h.008v.006h.006v.001h.008v.005h.006v.002h.008v.005h.007v.001h.008v.005h.005v.002h.008v.005h.007v.003l.007-.003v.007h.006v.002h.008v.006h.006v.001h.008v.005h.007v.002h.008v.005h.005v.001h.008v.005h.007v.002h.008v.005h.005v.001h.008v.006h.006v.002h.008v.006h.007v.001h.008v.005h.005v.002h.008v.005h.007v.001h.008v.005h.005v.002h.008v.005h.007v.001h.006v.003h.007v.003h.006v.002h.006v.003h.008v.005h.006v.002h.007v.005h.005v.001h.008v.004h.007v.002h.006v.002h.007v.003h.007v.003h.005v.002h.008v.003h.006v.002h.007v.003h.005v.003h.008v.005h.007v.001h.006v.006h.007v.001h.007v.004h.005v.001h.008v.003h.007v.002h.006v.003h.005v.003h.008v.002h.007v.003h.007v.003h.006v.004h.007v.002h.006v.004h.007v.003h.007v.004h.006v.003h.007v.002h.008v.003h.007v.002h.006v.003h.007v.004h.008v.003h.006v.004h.007v.002h.007v.004h.006v.003h.007v.004h.008v.003h.006v.002h.007v.003h.007v.003h.007v.002h.007v.003h.007v.003h.006v.004h.007v.002h.007v.004h.008v.003h.006v.004h.007v.002h.006v.004h.008v.003h.007v.003h.007v.002h.006v.003h.007v.003h.006v.002h.008v.003h.007v.004h.007v.002h.006v.004h.008v.003h.007v.004h.006v.003h.007v.004h.007v.002h.006v.003h.008v.003h.007v.002h.006v.003h.007v.004h.008v.003h.007v.003h.006v.003h.007v.004h.006v.003h.007v.004h.008v.002h.007v.003h.006v.003h.007v.002h.008v.003h.006v.003h.007v.002h.007v.004h.006v.003h.007v.004h.008v.002h.006v.004h.007v.003h.007v.004h.007v.003h.007v.002h.007v.003h.006v.003h.007v.002h.007v.003h.008v.003h.006v.004h.007v.002h.006v.004H2.9v.003h.007v.004h.007v.002h.006v.004h.007v.003h.006v.003h.008v.002h.007v.003h.007v.003h.006v.004h.008v.002h.007v.004h.006v.003h.007v.004h.007v.002h.006v.004h.008v.003h.007v.003h.006v.002h.007v.003h.008v.003h.007v.002h.006v.003h.007v.004h.006v.003h.007v.004h.008v.002h.007v.004h.006v.003h.007v.004h.008v.002h.006v.003h.007v.003h.007v.002h.006v.003h.007v.003h.008v.002h.006v.004h.007v.003h.007v.004h.008v.003h.006v.003h.007v.003h.006v.004h.007v.003l.015-.003v.009l.013-.002v.009l.014-.003v.01l.014-.003v.009l.014-.002v.009l.015-.003v.009l.013-.002v.009l.014-.003v.01l.014-.003v.009l.014-.002v.009l.015-.003v.01l.013-.003v.009l.015-.002v.009l.013-.003v.009l.014-.002v.009l.015-.003v.01l.013-.003v.009l.015-.002v.009l.013-.003v.009l.014-.002v.009l.015-.003v.01l.013-.003v.009l.015-.002v.009l2.317-.476 2.316-.477V16.99l-.013.003z"/><path fill="#FBFCFF" d="M3.193 16.243v-4.867l-2.317.476v6.952l2.317-.476 2.318-.477v-2.085z"/><path fill="#023887" d="M11.215 11.257v-.009l-.013.002v-.009l-.015.003v-.009l-.013.002v-.009l-.015.003v-.01l-.014.003v-.009l-.014.002v-.009l-.014.003v-.01l-.013.003v-.009l-.015.002v-.009l-.014.003v-.009l-.014.002v-.009l-.014.003v-.01l-.014.003v-.009l-.014.002v-.009l-.015.003v-.009l-.013.002v-.009l-.014.003v-.01l-.014.003v-.009l-.014.002v-.009l-.015.003v-.01l-.013.003v-.009l-.015.002v-.009H10.9V11.1h-.007v-.004h-.008v-.003h-.006v-.004h-.007v-.003h-.007v-.004h-.006v-.002h-.007v-.003h-.008v-.003h-.006v-.002h-.007v-.003h-.007v-.004h-.008v-.002h-.006v-.004h-.007v-.003h-.006v-.004h-.007v-.003h-.007v-.004h-.008v-.002h-.006v-.003h-.007v-.003h-.006v-.002h-.008v-.003h-.007v-.003h-.007v-.002h-.006v-.004h-.007v-.003h-.006v-.004h-.008v-.002H10.7v-.004h-.007v-.003h-.006v-.004h-.008V11h-.007v-.002h-.006v-.003h-.007v-.003h-.007v-.002h-.006v-.003h-.007v-.003h-.006v-.004h-.007v-.002h-.007v-.004h-.008v-.003h-.006v-.004h-.007v-.002h-.006v-.004h-.007v-.003h-.007v-.003h-.006v-.002h-.007v-.003h-.006v-.003h-.007v-.004h-.008v-.002h-.007v-.004h-.006v-.003h-.007v-.004h-.007v-.002h-.006v-.004h-.007v-.003h-.006v-.003h-.007v-.002h-.007v-.003h-.008v-.003h-.006v-.002h-.007v-.003h-.006v-.004h-.008v-.003h-.007v-.004h-.007v-.002h-.006v-.004h-.007v-.003h-.006v-.004h-.008v-.002h-.007v-.003h-.007v-.003h-.006v-.002h-.008v-.003h-.007v-.003h-.006v-.002h-.007v-.004h-.007v-.003h-.006v-.004h-.008v-.002h-.007v-.004h-.006v-.003h-.007v-.004h-.008v-.003h-.007v-.002h-.006v-.003h-.007v-.003h-.006v-.002h-.007v-.004h-.008v-.003h-.007v-.004h-.006v-.003h-.007v-.004h-.008v-.002h-.006v-.004h-.007v-.003h-.007v-.002h-.006v-.003h-.007v-.003h-.008v-.002h-.006v-.003h-.007v-.003h-.007v-.004h-.008v-.002h-.006v-.004h-.007v-.003h-.006v-.004h-.007v-.002h-.007v-.004h-.008v-.003h-.006v-.003h-.007v-.002h-.006v-.003h-.008v-.003h-.007v-.002h-.007v-.003h-.006v-.004h-.007v-.003h-.006v-.004h-.008v-.002h-.007v-.004h-.007v-.003h-.006v-.004h-.008v-.002h-.005v-.002h-.007v-.005h-.007v-.001h-.006v-.006h-.007V10.7h-.008v-.004h-.005v-.004h-.007v-.003h-.006v-.004H9.97v-.002h-.006v-.004h-.006v-.003h-.007v-.001h-.006v-.005h-.006v-.002h-.008v-.005h-.005v-.001h-.007v-.006h-.006v-.004h-.008v-.002H9.9v-.004h-.007v-.003h-.007v-.004H9.88v-.003h-.006v-.002h-.008v-.005h-.005v-.002h-.006v-.005h-.007v-.001H9.84v-.006h-.005v-.001h-.008v-.005H9.82v-.002h-.008v-.005h-.005v-.001h-.009v-.006h-.006v-.002l-.008.002v-.006h-.006v-.003H9.77v-.005h-.005v-.001h-.008v-.006H9.75v-.001h-.008v-.005h-.005v-.002h-.009v-.005h-.006v-.001h-.008v-.006h-.006v-.001H9.7v-.005h-.005v-.003h-.008v-.005H9.68v-.001h-.008v-.006h-.005v-.001h-.01v-.005h-.005v-.002h-.008v-.005h-.006v-.001H9.63v-.006h-.006v-.001h-.008v-.005H9.61v-.002h-.008V10.5h-.005v-.002h-.01v-.006h-.005v-.001h-.008v-.005h-.006v-.002H9.56v-.005h-.006v-.001h-.008v-.006H9.54v-.001h-.008v-.005h-.006v-.002h-.009v-.005h-.005v-.002l-.015.002v-.009l-.013.003v-.01l-.014.003v-.009l-.014.002v-.009l-.014.003v-.01l-.015.003v-.009l-.013.002v-.009l-.015.003v-.009l-.013.002v-.009l-.014.003v-.01l-.015.003v-.009l-.013.002v-.009l-.015.003v-.009l-.013.002v-.009l-.014.003v-.01l-.015.003v-.009l-.013.002v-.009l-.015.003v-.01l-.013.003v-.009l-.015.002v-.009l-.014.003v-.009l-.013.002v-.009l-.015.003v-.01l-.013.003v-.009l-.015.002v-.009l-.014.003v-.009l-.014.002v-.009l-.014.003v-.01l-.013.003v-.009l-.015.002v-.009l-.014.003v-.01l-.014.003v-.009l-.014.002v-.009l-.013.003v-.009l-.015.002v-.009l-.015.003v-.01l-.013.003v-.009l-.014.002v-.009l-.014.003v-.009l-.014.002v-.009l-.015.003v-.01l-.013.003v-.009l-.014.002v-.009l-.014.003v-.01l-.014.003v-.009l-.015.002v-.009l-.013.003v-.009l-.015.002v-.009l-.013.003v-.01l-.014.003v-.009l-.015.002v-.009l-.013.003v-.009l-.015.002v-.009l-.013.003v-.01l-.014.003v-.009l-.015.002v-.009l-.013.003v-.01l-.015.003v-.009l-.013.002v-.009l-.015.003v-.009l-.014.002v-.009l-.013.003v-.01l-.015.003v-.009l-2.317.476v6.952l.015-.003v.009l.013-.002v.009l.015-.003v.01l.013-.003v.009l.014-.002v.009l.015-.003v.009l.013-.002v.009l.015-.003v.01l.013-.003v.009l.015-.002v.009l.014-.003v.009l.013-.002v.009l.015-.003v.01l.013-.003v.009l.015-.002v.009l.014-.003v.01l.013-.003v.009l.015-.002v.009l.013-.003v.009l.015-.002v.009l.014-.003v.01l.014-.003v.009l.014-.002v.009l.013-.003v.009l.015-.002v.009l.014-.002v.009l.014-.003v.009l.014-.002v.009l.013-.003v.01l.015-.003v.009l.015-.002v.009l.013-.003v.009l.014-.002v.009l.014-.003v.01l.014-.003v.009l.015-.002v.009l.013-.003v.01l.015-.003v.009l.013-.003v.01l.014-.003v.009l.015-.002v.009l.013-.003v.01l.015-.003v.009l.013-.002v.009l.014-.003v.009l.015-.002v.009l.013-.003v.01l.015-.003v.009l.013-.002v.009l.015-.003v.01l.014-.003v.009l.013-.003v.01l.015-.003v.009l.013-.002v.009l.015-.003v.01l.013-.003v.009l.014-.002v.009l.015-.003v.009l.013-.002v.009l.015-.003v.01l.013-.003v.009l.015-.002v.009l.014-.003v.01H7.2v.001h.008v.005h.007v.003h.008v.005h.005v.001h.008v.006h.007v.001h.008v.005h.006v.002h.008v.005h.006v.001h.007v.006h.007v.001h.008v.005h.005v.001h.008v.006h.007v.002h.008v.006h.006v.001h.008v.005h.006v.002h.008v.005h.006v.001h.008v.006h.005v.001h.008v.005h.007v.001h.008v.006h.007v.002l.008-.002v.006h.005v.003h.008v.005h.006v.002h.008v.005h.006v.001h.008v.006h.006v.001h.008v.005h.007v.001h.008v.006h.005v.001h.008v.005h.006v.003h.008v.005h.006v.002h.008v.005h.006v.001h.007v.006h.006v.001h.007v.004h.005v.001h.007v.003h.007v.002h.006v.003h.006v.003h.007v.002h.007v.003h.007v.005h.006v.002h.007v.005h.005v.001h.007v.004h.006v.002h.007v.002h.005v.003h.008v.002h.007v.003h.007v.003h.005v.002h.008v.003h.005v.003h.007v.005h.006v.001h.007v.006h.005v.001h.008v.004h.007v.001h.006v.003h.007v.003h.008v.002h.007v.003h.006v.002h.007v.005h.006v.002h.007v.004h.008v.003h.007v.004h.006v.002H7.8v.004h.008v.003h.006v.003h.007v.002h.007v.003h.006v.003h.007v.004h.008v.002h.006v.004h.007v.003h.007v.004h.008v.002h.006v.004h.007v.003h.006v.003h.007v.002h.007v.003h.008v.003h.006v.002h.007v.003h.006v.004h.008v.003h.007v.003h.007v.003h.006v.004h.007v.003h.006v.004h.008v.002h.007v.003H8v.003h.006v.002h.008v.003h.007v.003h.006v.002h.007v.004h.007v.003h.006v.004h.008v.002h.007v.004h.006v.003h.007v.004h.008v.003h.007v.002h.006v.003h.007v.003h.006v.002h.007v.003h.008v.003h.007v.004h.006v.002h.007v.004h.008v.003h.006v.004h.007v.002h.007v.003h.006v.003h.007v.002h.008v.003h.006v.003h.007v.002h.007v.004h.008v.003h.006v.004h.007v.003h.006v.003h.007v.003h.007v.004h.008v.003h.006v.002h.007v.003h.006v.003h.008v.002h.007v.003h.007v.003h.006v.004h.007v.002h.006v.004h.008v.003h.007v.004h.007v.002h.006v.004h.008v.003h.007v.003h.006v.002h.007v.003h.007v.003h.006v.004h.008v.002h.007v.004h.006v.003h.007v.004h.008v.003h.007v.003h.006v.003h.007v.003h.006v.002h.007v.003h.008v.003h.007v.002h.006v.003h.007v.004h.008v.003h.006v.004h.007v.002h.007v.004h.006v.003h.007v.004h.008v.002h.006v.003h.007v.003h.007v.002h.008v.003h.006v.003h.007v.002h.006v.004h.007v.003l.015-.003v.01l.013-.003v.009l.014-.002v.009l.014-.003v.009l.014-.002v.009l.015-.003v.01l.013-.003v.009l.014-.002v.009l.014-.003v.009l.014-.002v.009l.015-.002v.009l.013-.003v.009l.015-.002v.009l.013-.003v.01l.014-.003v.009l.015-.002v.009l.013-.003v.009l.015-.002v.009l.013-.003v.01l.015-.003v.009l.014-.002v.009l.013-.003v.01l.015-.003v.009l2.317-.476v-6.952l-.015.003z"/><path fill="#FBFCFF" d="M8.604 16.991V10.04l-2.317.476v6.952z"/><path fill="#023887" d="m17.965 9.758-.02.004.006-.011-.019.004.006-.01-.019.004.005-.011-.018.004.005-.011-.018.004.005-.01-.02.004.005-.011-.018.004.005-.01-.018.004.005-.011-.019.004.006-.011-.019.003.005-.011-.019.004.005-.01-.019.004.006-.011-.019.004.005-.01-.018.004.005-.011-.018.004.005-.011-.02.004.005-.01-.018.004.005-.011-.018.004.005-.01-.019.003.006-.01-.019.004.005-.011-.019.004.005-.01-.019.004.006-.011-.019.004.005-.011-.01.003.002-.005h-.009l.003-.004-.009.002.002-.005h-.009l.003-.004-.011.003.003-.005h-.01l.003-.004-.009.002.002-.005-.009.003.003-.006h-.009l.002-.002-.009.002.003-.005h-.011l.003-.003-.01.003.003-.005h-.009l.002-.003h-.009l.003-.004-.011.003.003-.006h-.009l.002-.004-.009.003.003-.005h-.01l.003-.004-.009.003.002-.006-.009.003.003-.005h-.011l.003-.003-.009.003.002-.006h-.009l.003-.002-.01.002.003-.005h-.011l.003-.003h-.009l.002-.004-.009.003.003-.005h-.009l.002-.004-.01.002.002-.005h-.009l.003-.004-.011.003.003-.005h-.01l.003-.004-.009.002.002-.005-.009.003.003-.006h-.011l.003-.002-.009.002.002-.005h-.009l.003-.003-.01.003.003-.005h-.011l.003-.003h-.009l.003-.004-.011.003.003-.006h-.01l.003-.004-.009.003.002-.005h-.009l.003-.004-.011.002.003-.005h-.01l.003-.004-.009.003.003-.005-.01.002.003-.005h-.011l.003-.003-.009.003.002-.005h-.01l.002-.003-.009.003.003-.006h-.009l.002-.002h-.009l.003-.004-.011.002.003-.005h-.01l.003-.004-.009.003.002-.006h-.009l.003-.004-.011.003.003-.005-.009.002.002-.005h-.01l.002-.002-.009.002.003-.005h-.01l.003-.003-.009.003.002-.005h-.01l.003-.003h-.01l.003-.004-.009.003.002-.006h-.009l.003-.004-.011.003.003-.005h-.01l.003-.004-.01.002.002-.005h-.009l.003-.004-.01.003.003-.006-.009.003.002-.005h-.01l.002-.003-.009.003.003-.005h-.009l.002-.003-.009.003.003-.006H17.1l.003-.002h-.01l.003-.004-.011.002.003-.005h-.009l.002-.004-.009.003.003-.006h-.009l.002-.004-.01.003.002-.005h-.009l.003-.004-.01.002.003-.005-.009.003.002-.005h-.01l.003-.003-.01.003.003-.006h-.011l.003-.002-.009.002.002-.005h-.009l.003-.003h-.01l.003-.004-.01.003.002-.005h-.009l.003-.004-.01.002.003-.005h-.009l.002-.004-.01.003.002-.006-.009.003.003-.005h-.011l.003-.003-.009.003.002-.006h-.009l.003-.002-.01.002.003-.005h-.011l.003-.002h-.009l.002-.004-.009.002.003-.005h-.01l.003-.004-.01.003.002-.006h-.009l.003-.004-.011.003.003-.005h-.01l.003-.004-.009.002.002-.005-.009.003.003-.006h-.011l.003-.002-.009.002.002-.005h-.009l.003-.002-.01.002.003-.005h-.011l.003-.003h-.009l.002-.004-.01.003.003-.005h-.01l.003-.004-.009.002.002-.005h-.009l.003-.004-.011.003.003-.006h-.01l.003-.004-.009.003.003-.005h-.008l.001-.002h-.001l.001-.001h-.011l.003-.003h-.007l.002-.001h-.012l.002-.005h-.008l.002-.001h-.011l.003-.006h-.008l.003-.001h-.003v-.003l-.009.003.002-.005h-.006l.001-.002h-.001v-.002l-.01.002.003-.005h-.008l.001-.003h-.001l.001-.001-.01.003.003-.006h-.007l.001-.001h-.001V9.18h-.011l.003-.003h-.008l.001-.001h-.001v-.002h-.009l.002-.002h-.008l.003-.002h-.003.002-.011l.003-.005h-.007l.002-.001h-.002v-.003l-.009.003.003-.005h-.008l.001-.002h-.001v-.002l-.01.002.003-.005h-.007l.002-.001h-.002v-.003l-.009.003.003-.006h-.008l.001-.002h-.001v-.002l-.009.003.002-.005h-.008l.003-.002h-.003l.002-.001h-.011l.003-.003h-.007l.001-.001h-.001v-.001h-.009l.003-.003h-.008l.001-.001-.011.002.003-.006h-.007l.002-.001-.012.002.004-.006h-.008l.001-.002-.012.003.004-.007h-.008l.003-.002-.012.002.003-.006h-.007l.001-.003-.012.003.004-.007h-.008l.002-.001-.011.002.003-.006h-.007l.002-.002-.012.003.004-.007h-.008l.001-.001-.012.003.004-.007h-.008l.003-.001-.012.002.002-.006h-.006l.001-.001-.012.002.004-.006h-.008l.002-.003-.011.003.003-.007h-.007l.001-.001-.012.002.004-.006h-.007l.001-.002-.012.003.004-.007h-.008l.003-.001-.012.003.002-.007h-.006l.001-.001-.012.002.004-.006h-.008l.002-.002-.011.003.003-.007h-.007l.001-.001-.012.003.004-.007h-.008l.002-.002-.012.002.004-.006h-.008l.003-.002-.012.003.002-.007h-.006l.001-.001-.012.003.004-.007h-.008l.001-.001-.01.002.002-.006h-.006l.001-.002-.012.003.004-.007h-.008l.002-.001-.012.003.004-.007h-.008l.002-.003-.019.004.005-.01-.019.004.006-.011-.019.004.005-.01-.019.004.005-.011-.019.004.006-.011-.02.004.005-.01-.018.004.005-.011-.019.004.006-.01-.02.004.005-.011-.018.004.005-.011-.02.004.005-.01-.018.004.005-.011-.018.004.005-.011-.02.004.005-.01-.018.004.005-.011-.02.004.005-.01-.018.004.005-.011-.018.004.005-.011-.019.004.006-.01-.019.004.005-.011-.019.004.005-.01-.019.004.006-.011-.019.004.005-.011-.018.004.005-.01-.018.004.005-.011-.02.004.005-.011-.018.004.005-.01-.018.004.005-.011-.019.004.006-.01-.019.004.006-.011-.02.004.005-.011-.019.004.006-.01-.019.004.006-.011-.019.004.005-.01-.018.004.005-.011-.02.004.006-.011-.019.004.005-.01-.018.004.005-.011-.018.004.005-.011-.019.004.006-.01-.02.004.005-.011-.018.004.005-.01-.019.004.006-.011-.019.004.005-.011-.018.004.005-.01-.02.004.006-.011-.019.004.005-.01-.018.004.005-.011-.018.004.005-.011-.019.004.006-.01-.02.004.005-.011-.018.004.005-.011-.019.004.006-.01-.019.004.005-.011-.018.004.005-.01-.02.004.006-.011-.019.004.005-.011-.018.004.005-.01-.018.004.005-.011-.019.004.006-.01-.02.003.005-.01-.018.004.005-.011-.019.004.006-.01-2.457.504-.257.501-.013.003v-.009l-.015.002v-.009l-.014.003v-.01l-.014.003v-.009l-.014.002v-.009l-.013.003v-.009l-.015.002v-.009l-.015.003v-.01l-.013.003v-.009l-.014.002v-.009l-.014.003v-.01l-.014.003v-.009l-.015.003v-.01l-.013.003v-.009l-.014.002v-.009l-.014.003v-.01l-.014.003v-.009l-.015.002v-.009l-.013.003v-.009l-.015.002v-.009l-.013.003v-.01l-.014.003v-.009l-.015.002v-.009l-.013.003v-.01l-.015.003v-.009l-.013.003v-.01l-.014.003v-.009l-.015.002v-.009l-.013.003v-.01l-.015.003v-.009l-.013.002v-.009l-.015.003v-.009l-.014.002v-.009l-.013.003v-.01l-.015.003v-.009l-.013.002v-.009l-.015.003v-.01l-.014.003v-.009l-.014.003v-.01l-.014.003v-.009l-.013.002v-.009l-.015.003v-.01l-.014.003v-.009l-.014.002v-.009l-.014.003V9.29l-.013.002v-.009l-.015.003v-.01l-.015.003V9.27l-2.316.476v6.952l.014-.003v.009l.014-.002v.009l.014-.003v.009l.015-.002v.009l.013-.003v.01l.014-.003v.009l.014-.002v.009l.014-.003v.01l.013-.003v.009l.015-.002v.009l.015-.003v.009l.013-.002v.009l.014-.003v.01l.014-.003v.009l.014-.002v.009l.015-.003v.009l.013-.002v.009l.014-.002v.009l.014-.003v.009l.014-.002v.009l.015-.003v.01l.013-.003v.009l.015-.002v.009l.013-.003v.009l.014-.002v.009l.015-.003v.01l.013-.003v.009l.015-.002v.009l.013-.003v.01l.014-.003v.009l.015-.002v.009l.013-.003v.009l.015-.002v.009l.013-.003v.01l.015-.003v.009l.014-.002v.009l.013-.003v.009l.015-.002v.009l.013-.003v.01l.015-.003v.009l.014-.002v.009l.013-.003v.01l.015-.003v.009l.013-.003v.01l.015-.003v.009l.014-.002v.009l.014-.003v.01l.014-.003v.009l.013-.002v.009l.015-.003v.009l.014-.002v.009l.014-.003v.01l.014-.003v.009l.013-.002v.009l.015-.003v.01l.015-.003v.009l.013-.003v.01l.014-.003v.009l.014-.002v.009l.014-.003v.01l.015-.003v.009l.013-.002v.009l.014-.003v.009h.006v.002h.008v.005h.006v.003l.008-.003v.007h.006v.002h.009v.006h.005v.001h.008v.005h.007v.002h.008v.005h.005v.001h.008v.005h.007v.002h.007v.005h.006v.001h.009v.006h.005v.002h.008v.006h.007v.001h.008v.005h.005v.002h.008v.005h.007v.001h.008v.005h.005v.002h.009v.005h.005v.001h.008v.006h.007v.001h.008v.005h.005v.003h.008v.005h.007v.002h.008v.005h.005v.001h.009v.005h.006v.002h.007v.005h.007v.001h.008v.006h.005v.001h.008v.005h.007v.003l.008-.003v.007h.005v.003h.009v.005h.006v.001h.006v.005h.007v.002h.006v.004h.006v.001h.008v.003h.006v.002h.007v.003h.005v.003h.008v.002h.006v.003h.006v.005h.007v.002h.006v.005h.006v.001h.008v.005h.006v.002h.007v.004h.005v.001h.008v.003h.005v.002h.007v.003h.007v.003h.006v.002h.005v.003h.008v.005h.007v.002h.007v.005h.005v.001h.008v.004h.005v.002h.007v.002h.006v.003h.007v.002h.007v.003h.008v.003h.006v.004h.007v.002h.006v.004h.008v.003h.007v.004h.007v.003h.006v.004h.007v.002h.006v.003h.008v.003h.007v.002h.007v.003h.006v.002h.008v.003h.007v.004h.006v.003h.007v.004h.007v.002h.006v.004h.008v.003h.007v.004h.006v.003h.007v.002h.008v.003h.007v.003h.006v.002h.007v.003h.006v.002h.007v.004h.008v.003h.007v.004h.006v.003h.007v.004h.008v.002h.006v.003h.007v.003h.007v.002h.006v.003h.007v.003h.008v.002h.006v.004h.007v.003h.007v.004h.008v.002h.006v.004h.007v.003h.006v.004h.007v.003h.007v.002h.008v.003h.006v.003h.007v.002h.006v.003h.008v.003h.007v.003h.007v.003h.006v.004h.007v.003h.006v.004h.008v.002h.007v.004h.007v.003h.006v.003h.008v.002h.007v.003h.006v.003h.007v.002h.007v.003h.006v.004h.008v.002h.007v.004h.006v.003h.007v.004h.008v.003h.007v.002h.006v.003h.007v.003h.006v.002h.007v.003h.008v.003h.007v.004h.006v.002h.007v.004h.008v.003h.006v.004h.007v.002h.007v.004h.006v.003h.007v.003h.008v.002h.006v.003h.007v.003h.007v.002h.008v.003h.006v.004h.007v.003h.006v.003h.007v.003h.007v.004h.008v.003h.006v.004h.007v.002h.006v.003h.008v.003h.007v.002h.007v.003h.006v.003h.007v.002h.006v.004h.008v.003h.007v.004h.007v.003h.006v.003h.008v.003h.007v.004h.006v.003h.007v.002h.007v.003h.006v.003h.008v.002h.007v.004h.006v.003l.015-.003v.009l.013-.002v.009l.015-.002v.009l.013-.003v.009l.015-.002v.009l.014-.003v.01l.013-.003v.009l.015-.002v.009l.013-.003v.009l.015-.002v.009l.014-.003v.01l.013-.003v.009l.015-.002v.009l.013-.003v.01l.015-.003v.009l.014-.002v.009l.014-.003v.009l.014-.002v.009l.013-.003v.01l.015-.003v.009l.015-.002v.009l.013-.003v.009l.014-.002v.009l2.317-.476v-.621h.003l.002.003h.003l.003.002h.005l.003.003h.004l.002.003h.005l.003.002h.003l.002.004h.006l.002.003h.004l.003.004h.005l.003.003h.004l.003.004h.005l.002.002h.003l.003.004h.005l.003.003h.004l.002.003h.006l.002.002h.003l.003.003h.005l.002.003h.004l.003.003h.005l.003.003h.004l.003.004h.005l.003.003h.002l.003.004h.005l.003.002h.004l.002.004h.006l.002.003h.003l.003.003h.005l.003.002h.004l.002.003h.006l.002.002h.004l.003.003h.005l.003.003h.002l.003.004h.005l.003.002h.004l.003.004h.005l.003.003h.002l.003.004h.005l.003.003h.004l.002.004h.006l.002.002h.004l.003.003h.005l.003.003h.003l.002.002h.005l.003.003h.004l.003.003h.005l.003.002h.002l.003.004h.005l.003.003h.004l.002.004h.006l.002.002h.004l.003.004h.005l.003.003h.003l.002.004h.006l.002.003h.004l.003.002h.005l.003.003h.002l.003.003h.005l.003.002h.004l.003.004h.005l.003.003h.004l.002.004h.005l.003.002h.003l.002.004h.006l.002.003h.004l.003.004h.005l.003.003h.003l.002.002h.005l.003.003h.004l.003.003h.005l.003.002h.004l.002.003h.006l.002.003h.003l.002.004h.006l.002.002h.004l.003.004h.005l.003.003h.003l.002.004h.006l.002.002h.004l.003.004h.005l.003.003h.004l.002.003h.006l.002.002h.004l.003.003h.005l.003.003h.004l.002.002h.006l.002.003h.003l.003.004h.005l.003.003h.009l.005.006h.01l.005.007h.009l.005.006.01-.002.005.009h.009l.005.007h.01l.005.006h.009l.006.007h.009l.005.006h.009l.006.007.009-.003.005.01.009-.003.006.009h.009l.005.007h.01l.005.007h.009l.005.006h.01l.005.007h.009l.006.006.009-.002.005.009.009-.003.006.01h.009l.005.006h.009l.006.007h.009l.005.006h.01l.005.007h.009l.005.007 2.434-.5-1.974-3.05 1.997-3.906z"/><path fill="#FBFCFF" d="m15.34 8.543-2.457.504-.926 1.813V9.238l-2.317.476v6.952l2.317-.476v-1.623l.926 1.432 2.433-.5-1.975-3.05 1.998-3.906z"/><path fill="#023887" d="M23.127 10.573V8.488l-.015.002v-.009l-.014.003v-.009l-.014.002v-.009l-.014.003v-.01l-.013.003v-.009l-.015.002v-.009l-.014.003v-.01l-.014.003v-.009L23 8.437v-.009l-.013.003v-.009l-.015.002v-.009l-.015.003v-.01l-.013.003v-.009l-.014.002v-.009l-.014.003v-.009l-.014.002v-.009l-.015.003v-.01l-.013.003v-.009l-.015.002v-.009l-.013.003v-.01l-.014.003v-.009l-.015.002v-.009l-.013.003v-.009h-.008v-.003h-.007v-.004h-.006v-.003h-.007v-.004h-.008V8.32h-.006v-.004h-.007v-.003h-.007V8.31h-.006v-.002h-.007v-.003h-.008v-.002h-.006V8.3h-.007v-.003h-.007v-.004h-.008v-.002h-.006v-.004h-.007v-.003h-.006V8.28h-.007v-.003h-.007v-.004h-.008v-.002h-.006v-.003h-.007v-.003h-.006v-.002h-.008V8.26h-.007v-.002h-.007v-.003h-.006v-.004h-.007v-.003h-.006v-.004h-.008v-.002h-.007v-.004h-.007v-.003h-.006v-.004h-.008v-.003h-.007v-.002h-.006v-.003h-.007V8.22h-.007v-.002h-.006v-.003h-.008v-.002h-.007v-.004h-.006v-.003h-.007v-.004h-.008v-.003h-.007v-.004h-.006v-.002h-.007V8.19h-.006v-.003h-.007v-.002h-.008v-.003h-.007v-.003h-.006v-.002h-.007v-.004h-.008V8.17h-.006v-.004h-.007v-.002h-.007V8.16h-.006v-.003h-.007v-.004h-.007V8.15h-.006v-.002h-.007v-.003h-.006v-.003h-.008V8.14h-.007v-.003h-.007v-.003h-.006v-.003h-.008v-.003h-.007v-.004h-.006v-.003h-.007v-.004h-.007v-.002h-.006v-.004h-.008v-.003h-.007v-.003h-.006v-.002h-.007V8.1h-.008v-.003h-.006v-.002h-.007v-.003h-.007v-.004h-.006v-.002h-.007v-.004h-.008v-.003h-.006v-.004h-.007v-.003h-.007v-.004h-.008v-.002h-.006v-.003h-.007V8.06h-.007v-.002h-.006v-.003h-.007v-.004h-.008v-.003h-.006v-.003h-.007v-.003h-.007v-.004h-.007v-.003h-.007v-.004h-.007v-.002h-.006v-.003h-.007v-.003h-.007v-.002h-.007v-.003h-.007v-.003h-.007v-.002h-.006v-.004h-.008v-.003h-.007v-.004h-.006V8h-.007v-.004h-.007v-.003h-.006v-.004h-.008v-.003h-.007v-.002H22v-.003h-.007v-.003h-.008v-.002h-.007v-.003h-.006V7.97h-.007v-.004h-.006v-.002h-.007V7.96h-.008v-.003h-.007v-.004h-.006v-.002h-.007v-.002h-.008v-.005h-.005v-.001h-.007v-.006h-.006v-.001h-.007v-.005h-.007v-.004h-.008v-.003h-.005V7.92h-.006v-.003h-.007v-.003h-.008v-.003h-.005v-.004h-.007v-.003h-.007v-.001h-.006v-.005h-.007v-.002h-.008v-.005h-.005V7.89h-.007v-.004h-.006v-.004h-.008v-.003h-.005v-.004h-.007v-.002h-.007v-.004h-.006v-.003h-.006v-.003h-.008v-.005h-.005v-.001h-.006v-.006h-.007V7.85h-.008v-.005h-.005v-.002h-.008v-.005h-.007v-.001h-.008v-.006h-.005V7.83h-.009v-.005h-.006v-.003h-.008v-.004h-.006v-.002h-.008V7.81h-.005v-.001h-.008v-.005h-.007v-.002h-.008v-.005h-.005v-.001h-.01V7.79h-.005v-.001h-.008v-.005h-.006v-.001h-.008v-.006h-.006v-.002h-.008v-.006h-.006v-.001h-.008v-.005h-.005v-.002h-.01v-.005h-.005v-.001h-.008v-.006h-.006v-.001h-.008v-.005h-.006v-.001h-.008v-.006h-.006v-.002l-.008.002V7.73h-.005v-.003h-.01v-.005h-.005V7.72h-.008v-.005h-.007v-.001h-.008v-.006h-.005v-.001h-.008v-.005h-.006v-.001h-.008v-.006h-.006v-.001l-.014.003v-.01l-.015.003v-.009l-.013.002v-.009l-.014.003v-.01l-.014.003v-.009l-.014.002v-.009l-.015.003v-.009l-.013.002v-.009l-.015.003v-.01l-.013.003v-.009l-.014.002v-.009l-.015.003v-.009l-.013.002v-.009l-.015.003v-.01l-.013.003v-.009l-.014.002v-.009l-.015.003v-.01l-.013.003v-.009l-.015.002v-.009l-.013.003v-.009l-.015.002v-.009l-.014.003v-.01l-.013.003v-.009l-.015.002v-.009l-.013.003v-.01l-.015.003v-.009l-.014.003v-.01l-.014.003v-.009l-.014.002v-.009l-.013.003v-.01l-.015.003v-.009l-.014.002v-.009l-.014.003v-.009l-.014.002v-.009l-.013.003v-.01l-.015.003v-.009l-.015.002v-.009l-.013.003v-.01l-.014.003v-.009l-.014.003v-.01l-.014.003v-.009l-.015.002v-.009l-.013.003v-.01l-.014.003v-.009l-.014.002v-.009l-.014.003V7.39l-.015.002v-.009l-.013.003v-.01l-.015.003V7.37l-.013.002v-.009l-.014.003v-.01l-.015.003V7.35l-.013.003v-.01l-.015.003v-.009l-.013.002V7.33l-.015.003v-.01l-.014.003v-.009l-.013.002V7.31l-.015.003v-.009l-.013.002v-.009l-.015.003v-.01l-.014.003v-.009l-.013.002v-.009l-2.254.463-2.381.488v6.952l.014-.003v.01l.015-.003v.009l.013-.002v.009l.015-.003v.01l.013-.003v.009l.014-.002v.009l.015-.003v.009l.013-.002v.009l.015-.003v.01l.013-.003v.009l.015-.002v.009l.014-.003v.009l.013-.002v.009l.015-.003v.01l.013-.003v.009l.015-.002v.009l.013-.003v.01l.014-.003v.009l.015-.003v.01l.013-.003v.009l.015-.002v.009l.013-.003v.01l.015-.003v.009l.014-.002v.009l.013-.003v.009l.015-.002v.009l.013-.003v.01l.015-.003v.009l.014-.002v.009l.013-.003v.01l.015-.003v.009l.013-.003v.01l.015-.003v.009l.014-.002v.009l.014-.003v.01l.014-.003v.009l.013-.002v.009l.015-.003v.009l.014-.002v.009l.014-.003v.01l.014-.003v.009l.014-.002v.009l.014-.003v.01l.015-.003v.009l.013-.003v.01l.014-.003v.009l.014-.002v.009l.014-.003v.01l.015-.003v.009l.013-.002v.009l.015-.003v.009l.013-.002v.009l.014-.003v.01l.015-.003v.009l.013-.002v.009l.015-.003v.009l.013-.002v.009l.014-.002v.009l.015-.003v.009l.013-.002v.009l.015-.003v.01l.013-.003v.009l.015-.002v.009h.005v.003l.009-.003v.006h.005v.003h.008v.005h.007v.002h.008v.005h.005v.001h.008v.006h.007v.001h.008v.005h.005v.002h.009v.005h.005v.001h.008v.005h.007v.003h.008v.005h.005v.002h.008v.005h.007v.001h.008v.006h.005v.001h.009v.005h.006v.002h.008v.005h.006v.001h.008v.005h.005v.002h.008v.005h.007v.003h.008v.005h.005v.001h.009v.006h.006v.001h.008v.005h.006v.002h.008v.005h.006v.001h.007v.006h.007v.001h.008v.005h.005v.003l.01-.003v.007h.005v.002h.008v.006h.006v.001h.008v.005h.006v.002h.008v.004h.006v.001h.007v.003h.005v.002h.008v.003h.005v.002h.007v.003h.007v.003h.006v.005h.005v.001h.008v.006h.007v.001h.007v.005h.005v.002h.008v.004h.005v.001h.007v.003h.006v.002h.007v.003h.005v.002h.008v.003h.007v.003h.006v.005h.006v.001h.008v.006h.005v.001h.007v.004h.006v.001h.007v.003h.005v.003h.008v.002h.007v.003h.006v.003h.007v.004h.008v.002h.007v.004h.006v.003h.007v.004h.006v.002h.007v.004h.008v.003h.007v.003h.006v.002h.007v.003h.008v.003h.006v.002h.007v.003h.007v.004h.006v.002h.007v.004h.008v.003h.006v.004h.007v.003h.007v.004h.007v.002h.007v.003h.007v.003h.006v.002h.007v.003h.007v.003h.008v.002h.006v.004h.007v.003h.006v.004h.008v.003h.007v.003h.007v.003h.006v.003h.007v.002h.006v.003h.008v.003h.007v.002h.007v.003h.006v.004h.008v.003h.007v.004h.006v.002h.007v.004h.007v.003h.006v.004h.008v.002h.007v.003h.006v.003h.007v.002h.008v.003h.006v.003h.007v.002h.007v.004h.006v.003h.007v.004h.008v.003h.006v.004h.007v.002h.007v.004h.008v.003h.006v.002h.007v.003h.007v.003h.006v.002h.007v.003h.008v.003h.006v.004h.007v.002h.007v.004h.008v.003h.006v.004h.007v.003h.006v.003h.007v.003h.007v.003h.008v.002h.006v.003h.007v.003h.006v.004h.008v.002h.007v.004h.007v.003h.006v.004h.007v.003h.006v.004h.008v.002h.007v.003h.007v.002h.006v.003h.008v.003h.007v.002h.006v.003h.007v.004h.007v.003h.006v.004h.008v.002h.007v.004h.006v.003h.007v.004h.008v.002h.007v.003h.006v.003h.007v.002h.006v.003h.007v.003h.008v.002h.007v.004h.006v.003h.007v.004h.008v.003h.006v.004h.007v.002h.007v.004h.006v.003h.007v.002h.008v.003h.006v.003h.007v.002h.007v.004h.007v.003h.007v.004h.007v.003l.014-.003v.009l.015-.002v.009l.013-.003v.009l.015-.002v.009l.013-.003v.01l.014-.003v.009l.014-.002v.009l.014-.003v.01l.015-.003v.009l.013-.002v.009l.015-.003v.009l.013-.002v.009l.014-.003v.01l.015-.003v.009l.013-.002v.009l.015-.003v.009l.013-.002v.009l.014-.002v.009l.015-.003v.009l.013-.002v.009l.015-.003v.01l.013-.003v.009l.015-.002v.009l4.634-.953v-2.085l-.014.003v-.01l-.015.003v-.009l-.013.002v-.009l-.014.003v-.009l-.014.002v-.009l-.014.002v-.009l-.015.003v-.009l-.013.002v-.009l-.015.003v-.01l-.013.003v-.009l-.014.002v-.009l-.015.003v-.009l-.013.002v-.009l-.015.003v-.01l-.013.003v-.009l-.015.002v-.009l-.014.003v-.01l-.013.003v-.009l-.015.002v-.009l-.013.003v-.009l-.015.002v-.009l-.014.003v-.01l-.013.003v-.009h-.008v-.003h-.007v-.004h-.007v-.002h-.006v-.003h-.008v-.003h-.007v-.002h-.006v-.003h-.007v-.004h-.007v-.003h-.006v-.004h-.008v-.002h-.007v-.004h-.006v-.003h-.007v-.004h-.008v-.003h-.007v-.002h-.006v-.003h-.007v-.002h-.006v-.003h-.007v-.003h-.008v-.002h-.007v-.004h-.006v-.003h-.007v-.004h-.008v-.003h-.006v-.004h-.007v-.002h-.007v-.004h-.006V13.1h-.007v-.003h-.008v-.002h-.006v-.003h-.007v-.002h-.007v-.003h-.008v-.003h-.006v-.004h-.007v-.002h-.006v-.004h-.007v-.003h-.007v-.004h-.008v-.003h-.006v-.004h-.007v-.002H22.5v-.003h-.008v-.002h-.007v-.003h-.007v-.003h-.006v-.004h-.007v-.002h-.006v-.004h-.008v-.003h-.007v-.004h-.007v-.003h-.006l.361-.074V11.1l-.013.002v-.009l-.015.003v-.01l-.014.003v-.009l-.014.002v-.009l-.014.003v-.009l-.013.002v-.009l-.015.003v-.01l-.014.003v-.009l-.014.002v-.009l-.014.003v-.01l-.013.003v-.009l-.015.002v-.009l-.015.003v-.009l-.013.002v-.009l-.014.003V11l-.014.003v-.009l-.014.002v-.009l-.015.003v-.01l-.013.003v-.009l-.014.003v-.01l-.014.003v-.009l-.014.002v-.009l-.015.003v-.01h-.006v-.002h-.007v-.003h-.008v-.003h-.007v-.003h-.006v-.003h-.007v-.004h-.008v-.003h-.006v-.004h-.007v-.002H22.4v-.004h-.006v-.003h-.007v-.003h-.008v-.002h-.006v-.003h-.007v-.003h-.007V10.9h-.008v-.003h-.006v-.004h-.007v-.002h-.006v-.004h-.007v-.003h-.007v-.004h-.008v-.003h-.006v-.004h-.007v-.002h-.006v-.003h-.008v-.003h-.007v-.002h-.007v-.003h-.006v-.003h-.007v-.002h-.006v-.004h-.008v-.003h-.007v-.004h-.007v-.002h-.006v-.004h-.008v-.003h-.007v-.004h-.006v-.003h-.007v-.002h-.007v-.003h-.006v-.003h-.008v-.002h-.007v-.003h-.006v-.003h-.007v-.004h-.008v-.002h-.007v-.004h-.006v-.003h-.007v-.004h-.006v-.002h-.007v-.003h-.008v-.003h-.007l1.035-.213z"/><path fill="#FBFCFF" d="M20.502 9.36V7.274l-2.254.464-2.381.488v6.951l4.635-.952V12.14l-2.254.463v-.463l1.918-.393V9.892l-1.918.394v-.463z"/></g></svg>